<?xml version="1.0" encoding="utf-8"?>
<!-- Generator: Adobe Illustrator 23.0.6, SVG Export Plug-In . SVG Version: 6.00 Build 0)  -->
<svg version="1.1" id="Layer_1" xmlns="http://www.w3.org/2000/svg" xmlns:xlink="http://www.w3.org/1999/xlink" x="0px" y="0px"
	 viewBox="0 0 500 500" style="enable-background:new 0 0 500 500;" xml:space="preserve">
<style type="text/css">
	.st0{fill:#C79288;}
	.st1{fill:#C79288;stroke:#FFFFFF;stroke-width:10;stroke-miterlimit:10;}
</style>
<path class="st0" d="M380.9,297.6c-14.4-13.4-47-43.5-92.1-50.5c-1.2-0.2-2.4-0.4-3.6-0.5c-0.4-0.1-0.9-0.1-1.3-0.2
	c-13.3-1.7-31.9-2.9-52.9-0.9c-60.1,6.1-93.5,34.9-111.9,52c-46.8,43.4-43.3,87-41.7,101.9c0.3,3.2,0.8,5.9,1.1,7.7
	c6.2,0,12.5,0,18.7,0c48.5,0,97,0,145.6,0c4.9,0,9.7,0,14.6,0c48.5,0,97,0,145.6,0c6.2,0,12.5,0,18.7,0c0.3-1.8,0.8-4.6,1.1-7.7
	C424.2,384.6,427.7,341,380.9,297.6z"/>
<circle class="st1" cx="250" cy="183.2" r="90.5"/>
</svg>
