<?xml version="1.0" encoding="utf-8"?>
<!-- Generator: Adobe Illustrator 23.0.6, SVG Export Plug-In . SVG Version: 6.00 Build 0)  -->
<svg version="1.1" id="Layer_1" xmlns="http://www.w3.org/2000/svg" xmlns:xlink="http://www.w3.org/1999/xlink" x="0px" y="0px"
	 viewBox="0 0 500 500" style="enable-background:new 0 0 500 500;" xml:space="preserve">
<style type="text/css">
	.st0{opacity:0.8;}
	.st1{fill:#FFFFFF;}
	.st2{fill:#C69288;}
	.st3{font-family:'Apple-Chancery';}
	.st4{font-size:400px;}
</style>
<g class="st0">
	<line class="st1" x1="0" y1="65.1" x2="399.9" y2="65.1"/>
	<g>
		<g>
			<g>
				<path class="st2" d="M7.2,80.8c-0.9,0-1.7,0-1.7,0c0,0.2,0,0.4,0,0.6C6.1,81.2,6.7,81,7.2,80.8z"/>
				<path class="st2" d="M8.8,73.8c-0.2,0-0.3,0-0.5,0c0.1,0.2,0.1,0.3,0.1,0.5C8.5,74.1,8.6,74,8.8,73.8z"/>
				<path class="st2" d="M5.5,81.4c0.1,2.1,0.8,4.3,0,6.4c-0.9,0-2.7,0-3.7,0c-0.9,1.2,0,2.3,0,3.5c-0.9,0-1.8,0-1.8,0.6
					c-0.6,1.5,0.4,2.6,2.2,2.9C6.1,88.3,16.2,86,5.5,81.4z"/>
				<path class="st2" d="M12.8,76.7c-1.6,0-3.2,0-4.8,0c-0.5,1.3-1.2,2.7-0.7,4C9.8,79.8,11.3,78.7,12.8,76.7z"/>
				<path class="st2" d="M386.8,74.2c0-0.4,0.1-0.5,0.9,0C387.4,74.2,387.1,74.2,386.8,74.2c0,0.3,0,0.8-0.4,1
					c3.2-0.7,6.9-1.3,10.6-1.5c0.5-0.6,0.9-1.3,1.3-1.9c-9,0.4-17.9,0.4-25.3,3.5C378.2,75.3,381.8,74.3,386.8,74.2z"/>
				<path class="st2" d="M399,68.3c0.3,0,0.6,0,0.9,0C399.1,67.8,399,68,399,68.3z"/>
				<path class="st2" d="M239.1,81.6c-5.5,0.5-10.4,2.5-15.3,4.5c10.4-1.7,21.1-2.5,29.1-4.7C248.3,81.5,243.7,81.6,239.1,81.6z"/>
				<path class="st2" d="M199.3,93.8c6.9,1.1,12.5-0.4,17.9-2.4c-5.5,0.5-10.9,1-16.4,1.5C200.3,93.2,199.8,93.5,199.3,93.8z"/>
				<path class="st2" d="M206.9,90.2c6.3,0,11.6-2,16.8-4.1C217.8,87,212.1,88.3,206.9,90.2z"/>
				<path class="st2" d="M331.1,36.2c4.1-1.7,6.6-2.4,8.1-2.6c0.6-0.8,1.5-1.8,2.6-3.1c-0.2,0-0.5,0-0.7,0c-4.3,1.1-8.6,2-13,2.9
					c-1.8,0.7-3.5,1.5-4.9,2.5C325.8,36.1,328.5,36.2,331.1,36.2z"/>
				<path class="st2" d="M339.2,33.6C333.8,40.6,344.7,32.9,339.2,33.6L339.2,33.6z"/>
				<path class="st2" d="M312.5,70.5c-0.2,0-0.4,0-0.6,0c-0.6,0.1-1.2,0.3-1.8,0.4C310.9,70.7,311.7,70.6,312.5,70.5z"/>
				<path class="st2" d="M261.4,53.8c3.6-0.2,7.3-0.7,10.8-1.2c-7.4,0.6-14.8,1.2-20.9,3c0.9,0,1.8,0.6,2.8,0.6
					C255.9,55,258.7,53.8,261.4,53.8z"/>
				<path class="st2" d="M341.1,65c-10,1.5-19.8,3.4-29.2,5.5c-19.3,0.2-37.8,1.6-54.5,6.4c-14.7,4.7-40.4,3.5-55,12.9
					c1.6,0.3,3.1,0.4,4.5,0.4c-2.2,0.8-4.2,1.7-6.1,2.8c-24.2,2-48,3.3-72.8,3.3c-3.7,0-6.4,1.8-10.1,1.8c-3.7,0.1-7.4,0.2-11,0.3
					c0,0.1,0,0.3,0.1,0.4c-15.1,0.7-30,1.9-45.6,3.8c-7.3,0.6-14.7,0-22,0c-2.8,0-2.8-2.3-4.6-2.9c-7.3-2.9-12.8-5.3-21.1-6.5
					c0,0,0-1.2,0-1.8c-1.3,0.2-2.4,0.2-3.3,0c3.9-6.6,14-8.9,3.4-13.5c0,0,0,0,0,0c0.6-0.2,1.1-0.4,1.6-0.6c0.1,0,0.1,0,0.2,0
					c0,0,0,0,0-0.1c2.5-1,4-2.1,5.5-4c-1.6,0-3.2,0-4.8,0c0.3-0.8,0.5-1.6,0.3-2.5c0.1-0.2,0.3-0.3,0.4-0.5c0.7,0,1.3,0,1.3,0
					c0.2-0.5,0.4-0.9,0.5-1.4c4.2-2.5,10.8-3.8,9.6-6.3c-1-1.3-4.1-0.2-7.5,0.6c-0.2-0.2-0.5-0.4-0.7-0.6c4.6-0.6,0-4.1,2.8-4.7
					c3.7,0,7.3-0.6,11-0.6c14.9,0,27.5-0.6,42.2-2.3c0.6-0.1,1.3-0.1,1.9-0.2c7.1-0.7,13.8-0.9,20.8-0.4c-0.4,0.4-0.9,0.8-1.4,1.1
					c5.6,0.4,11.2,0.5,16.8-0.4c13.8-2.3,27.5-4.7,42.2-5.3c15.4-0.5,30.2-1.7,45.8-3.7c-6.4,1.3-12.8,2.5-19.3,2.9
					c-2.9-0.1-5.9-0.1-8.7,0c2.9,0.2,5.8,0.1,8.7,0c11.3,0.2,22.9,0.9,31.6-4.6c0.9,0.5,0.9,1.1,1.9,1.1c6.4,0,12.8,0.6,18.3-1.8
					c0-0.6,2.8-0.6,1.8-1.8c5.5-0.6,11.9-0.6,17.4-1.8c2.4-0.4,4.8-1.5,7.1-2.9c19.7-3.1,39.2-6.3,60.4-9.3
					c5.3-0.6,11.4-0.6,16.7-0.6c-7.9,2-15.9,3.6-24.2,5c-8-0.4-15.6-0.4-21.9,2.6c-1.5,0.6-2.9,1.1-4.4,1.6
					c8.9-1.3,17.6-2.6,26.3-4.2c4.7,0.3,9.5,0.7,14.3,0.7c-0.1,0-0.2,0.1-0.3,0.1c-3.7,0.8-7.4,1.5-11.2,2.1
					c-7.1-0.4-13.9-0.4-19.7,1.7c-0.7,0.3-1.5,0.6-2.1,0.9c-1.5,0.6-2.9,1.1-4.4,1.6c5.5-0.8,10.9-1.6,16.3-2.5
					c3.3-0.5,6.7-1.1,10-1.7c2.1,0.1,4.2,0.3,6.3,0.4c-0.2,0.1-0.5,0.3-0.7,0.5c-1.8,0.6-7,7.5-4.2,9.2c14.1-0.1,33.9-2.9,33.9-2.3
					c0.9,2.3-23.3,5.4-22.4,6c1.4,0.3,2.7,0.5,4.1,0.7c-1.3,0.5-2.5,1-3.7,1.5c-2.7,0.6-6.4,0-8.3,1.2c-6.4,3.5-13.8,2.3-21.1,4.7
					c-4.6,1.8-10.1,4.1-15.6,6.5c0,1.2-2.8,0.6-1.8,1.8c-5.2,0-11.2,0-13.4,3.4c-0.1,0-0.3,0.1-0.4,0.1c-0.4,0-0.9,0.2-1.4,0.5
					c-8.6-0.6-14.6,2.7-22.4,4.9c-2.7,0.3-5.4,0.5-8.2,0.5c1.8,0,4.6,0.6,6.4,0c0.6-0.2,1.2-0.3,1.8-0.5c7-0.8,13.6-2.3,20.2-3.6
					c0.5-0.3,1.4-0.9,2.2-1.3c0.5,0,1,0.1,1.4,0.1c0.1-0.2,0.2-0.5,0.4-0.7c6.3-1.7,13.5-2.3,18.9-4c10.2-2,21-1,31.4-0.7
					c-5.2,1-10.3,2-15.3,3.2c6.3-1,12.2-2,17.9-3.1c0.9,0,1.8,0,2.6,0h5.5c-1.7-0.3-3.4-0.5-5.1-0.6c3.4-0.7,6.8-1.4,10.1-2.2
					c18.4-2.7,37.4-4.2,56-3.3c-0.4,0.7-0.8,1.4-1.2,2.1c-9,0.4-17.9,0.4-25.3,3.5c5.2,0,8.8-1,13.8-1.1c0,0.3,0,0.8-0.4,1
					c3.2-0.7,6.9-1.3,10.6-1.5c-1.2,1.5-2.5,3-3.8,4.5c-1.8,1.2-4.6,1.2-7.3,1.8c-11.9,1-23.1,0.7-34.9,2.1
					c-10.4-0.2-20.9-0.4-31.1-0.3C322.7,68.8,332,67.1,341.1,65z M33.3,80.3c0.9-0.2,1.9-0.5,2.9-0.8c-0.2-0.1-0.3-0.3-0.4-0.4
					C34.9,79.1,34,79.6,33.3,80.3z M54.8,80.9c-6.3-1-14.6,0.3-22.6,1.2c0,0.2-0.1,0.3-0.1,0.5C38.8,83.1,47.1,81.7,54.8,80.9z
					 M79.9,93.1c0-0.1-0.1-0.1-0.2-0.2c0,0.1,0,0.2,0,0.3C79.8,93.1,79.9,93.1,79.9,93.1z M191.7,74.4c-7.3,2.9-16.5,2.9-25.7,4.1
					c-2.8,0-5.5,2.3-9.2,2.3c-4.6,0.6-7.3,1.8-11,2.3l2.8,1.2c-6.4-0.6-10.1,2.9-16.5,1.8c0,0.6-0.9,1.8-1.8,1.8
					c-4.6,0.6-9.2-0.6-12.8,0.6c-4.6,0.6-9.2,0.6-12.8,1.8c-0.9,0-2.7,1.8-4.6,2.4c-2.2,0.2-4.5,0.4-6.7,0.5
					c0.1,0.2,0.2,0.3,0.3,0.5c1.8,0,3.7,0,5.5-0.4c5.5-1.2,11.9-2.4,17.4-2.9c13.8-1.2,26.6-3.5,39.4-5.9c2.7-0.6,5.5-1.8,8.3-2.3
					c8.3-2.3,18.4-1.8,23.8-5.9C189,75.6,190.8,75.6,191.7,74.4z M202,48.9c-9.7,2.5-20.4,3.6-29.5,3.1c-7.3,0-28.4,3.5-24.8,10.6
					C156.8,49.9,208.3,62.4,202,48.9z M278.5,38.2c-3.8,0.9-7.6,1.8-11.9,1.8C270.5,39.3,274.5,38.7,278.5,38.2z M239.4,62.1
					c11.9-4.1,24.8-4.7,36.7-7c9.2-1.8,19.3,1.2,27.5-2.9c0-0.6,0-1.2,0-1.8l-0.9,0.6c-3.2-0.3-5.8-1.3-8.5-1.8
					c0.2-0.1,0.3-0.1,0.5-0.2c-0.3,0-0.5,0.1-0.8,0.1c-1.8-0.3-3.7-0.4-5.8,0.1c-1,0.3-2,0.6-3,0.8c-11.5,1-23.3,1.9-33.7,5.6
					c-6.4,1.8-11.9,4.7-18.3,6.5C234.8,62.1,237.6,62.7,239.4,62.1z"/>
				<path class="st2" d="M324.2,63.6c4-0.7,8-1.4,12-2c3.1-0.7,6.2-1.5,9.3-2.3c14.7-3.1,31.9-2.1,47.7-3.5c0.5-1.7,0.5-3.5,0-5.3
					c-17.2-1.9-34.4,1.2-51.5,0.3c-0.1,0.1-0.3,0.1-0.4,0.2c-7.3,3.5-19.3,2.3-28.4,5.3c-9.2,3.5-18.3,4.7-27.5,7.6
					C298.5,63.8,311.1,62.6,324.2,63.6z"/>
				<path class="st2" d="M217.2,91.5c3.6-0.3,7.2-0.7,10.8-1.1c10.1-1.4,19.1-3.1,28.3-5.3c-6.7,0.3-13.5,0.5-20.4,0.5
					C229.1,86.2,223.3,89.2,217.2,91.5z"/>
				<path class="st2" d="M263.8,83.3c-2.5,0.6-5,1.2-7.5,1.8c10-0.5,19.9-1.2,29.8-1.9c16.3-2.4,32.6-4.5,48.9-7.6
					c1.8-0.3,3.7-0.6,5.5-0.8c-30.3-0.7-60.5-1.3-86.2,6.1c-0.5,0.2-1,0.3-1.5,0.4c12.2-0.4,24.3-1.3,36.4-2.2
					C280.8,80.4,272.3,81.7,263.8,83.3z"/>
				<path class="st2" d="M320.4,64.3c0.9,0,1.8,0,2.6,0.1c1-0.2,2-0.4,3-0.6c-0.6-0.1-1.2-0.1-1.8-0.2
					C322.9,63.9,321.6,64.1,320.4,64.3z"/>
				<path class="st2" d="M294.2,49.1c-0.1,0-0.2,0-0.3-0.1c-2.9,0.3-5.9,0.6-8.8,0.9c-4.1,1.1-8.4,2-12.8,2.7
					C280.2,52,288,51.3,294.2,49.1z"/>
				<path class="st2" d="M268.8,35.1c-0.9,0-2.7,0-3.7,0c-0.6,0.4-1.1,0.7-1.7,1.1c0.9,0,1.7,0.1,2.6,0.1L268.8,35.1z"/>
				<path class="st2" d="M214.6,44.6c16.3-2.3,31.5-4.7,46.6-7.1c0.7-0.4,1.5-0.9,2.2-1.3c-10.1-0.4-20.2,0.4-29.5,3.6
					c-1.8,0.6-4.6,2.3-6.4,2.3c-8.7,0.6-17,2.4-25.2,4.1c3.9-0.5,7.9-1,12-1.6C214.4,44.6,214.5,44.6,214.6,44.6z"/>
			</g>
		</g>
	</g>
</g>
<g class="st0">
	<line class="st1" x1="40.3" y1="104.1" x2="440.2" y2="104.1"/>
	<g>
		<g>
			<g>
				<path class="st2" d="M47.4,119.8c-0.9,0-1.7,0-1.7,0c0,0.2,0,0.4,0,0.6C46.4,120.2,46.9,120,47.4,119.8z"/>
				<path class="st2" d="M49,112.8c-0.2,0-0.3,0-0.5,0c0.1,0.2,0.1,0.3,0.1,0.5C48.7,113.1,48.9,112.9,49,112.8z"/>
				<path class="st2" d="M45.8,120.4c0.1,2.1,0.8,4.3,0,6.4c-0.9,0-2.7,0-3.7,0c-0.9,1.2,0,2.3,0,3.5c-0.9,0-1.8,0-1.8,0.6
					c-0.6,1.5,0.4,2.6,2.2,2.9C46.4,127.3,56.4,125,45.8,120.4z"/>
				<path class="st2" d="M53.1,115.7c-1.6,0-3.2,0-4.8,0c-0.5,1.3-1.2,2.7-0.7,4C50.1,118.8,51.6,117.6,53.1,115.7z"/>
				<path class="st2" d="M427,113.2c0-0.4,0.1-0.5,0.9,0C427.6,113.2,427.3,113.2,427,113.2c0,0.3,0,0.8-0.4,1
					c3.2-0.7,6.9-1.3,10.6-1.5c0.5-0.6,0.9-1.3,1.3-1.9c-9,0.4-17.9,0.4-25.3,3.5C418.5,114.3,422,113.3,427,113.2z"/>
				<path class="st2" d="M439.3,107.3c0.3,0,0.6,0,0.9,0C439.4,106.8,439.3,106.9,439.3,107.3z"/>
				<path class="st2" d="M279.3,120.6c-5.5,0.5-10.4,2.5-15.3,4.5c10.4-1.7,21.1-2.5,29.1-4.7C288.5,120.5,283.9,120.6,279.3,120.6z
					"/>
				<path class="st2" d="M239.5,132.8c6.9,1.1,12.5-0.4,17.9-2.4c-5.5,0.5-10.9,1-16.4,1.5C240.6,132.2,240,132.5,239.5,132.8z"/>
				<path class="st2" d="M247.2,129.1c6.3,0,11.6-2,16.8-4.1C258.1,126,252.3,127.2,247.2,129.1z"/>
				<path class="st2" d="M371.4,75.2c4.1-1.7,6.6-2.4,8.1-2.6c0.6-0.8,1.5-1.8,2.6-3.1c-0.2,0-0.5,0-0.7,0c-4.3,1.1-8.6,2-13,2.9
					c-1.8,0.7-3.5,1.5-4.9,2.5C366.1,75.1,368.8,75.2,371.4,75.2z"/>
				<path class="st2" d="M379.4,72.6C374.1,79.6,385,71.9,379.4,72.6L379.4,72.6z"/>
				<path class="st2" d="M352.8,109.4c-0.2,0-0.4,0-0.6,0c-0.6,0.1-1.2,0.3-1.8,0.4C351.1,109.7,351.9,109.6,352.8,109.4z"/>
				<path class="st2" d="M301.7,92.8c3.6-0.2,7.3-0.7,10.8-1.2c-7.4,0.6-14.8,1.2-20.9,3c0.9,0,1.8,0.6,2.8,0.6
					C296.2,94,298.9,92.8,301.7,92.8z"/>
				<path class="st2" d="M381.4,104c-10,1.5-19.8,3.4-29.2,5.5c-19.3,0.2-37.8,1.6-54.5,6.4c-14.7,4.7-40.4,3.5-55,12.9
					c1.6,0.3,3.1,0.4,4.5,0.4c-2.2,0.8-4.2,1.7-6.1,2.8c-24.2,2-48,3.3-72.8,3.3c-3.7,0-6.4,1.8-10.1,1.8c-3.7,0.1-7.4,0.2-11,0.3
					c0,0.1,0,0.3,0.1,0.4c-15.1,0.7-30,1.9-45.6,3.8c-7.3,0.6-14.7,0-22,0c-2.8,0-2.8-2.3-4.6-2.9c-7.3-2.9-12.8-5.3-21.1-6.5
					c0,0,0-1.2,0-1.8c-1.3,0.2-2.4,0.2-3.3,0c3.9-6.6,14-8.9,3.4-13.5c0,0,0,0,0,0c0.6-0.2,1.1-0.4,1.6-0.6c0.1,0,0.1,0,0.2,0
					c0,0,0,0,0-0.1c2.5-1,4-2.1,5.5-4c-1.6,0-3.2,0-4.8,0c0.3-0.8,0.5-1.6,0.3-2.5c0.1-0.2,0.3-0.3,0.4-0.5c0.7,0,1.3,0,1.3,0
					c0.2-0.5,0.4-0.9,0.5-1.4c4.2-2.5,10.8-3.8,9.6-6.3c-1-1.3-4.1-0.2-7.5,0.6c-0.2-0.2-0.5-0.4-0.7-0.6c4.6-0.6,0-4.1,2.8-4.7
					c3.7,0,7.3-0.6,11-0.6c14.9,0,27.5-0.6,42.2-2.3c0.6-0.1,1.3-0.1,1.9-0.2c7.1-0.7,13.8-0.9,20.8-0.4c-0.4,0.4-0.9,0.8-1.4,1.1
					c5.6,0.4,11.2,0.5,16.8-0.4c13.8-2.3,27.5-4.7,42.2-5.3c15.4-0.5,30.2-1.7,45.8-3.7c-6.4,1.3-12.8,2.5-19.3,2.9
					c-2.9-0.1-5.9-0.1-8.7,0c2.9,0.2,5.8,0.1,8.7,0c11.3,0.2,22.9,0.9,31.6-4.6c0.9,0.5,0.9,1.1,1.9,1.1c6.4,0,12.8,0.6,18.3-1.8
					c0-0.6,2.8-0.6,1.8-1.8c5.5-0.6,11.9-0.6,17.4-1.8c2.4-0.4,4.8-1.5,7.1-2.9c19.7-3.1,39.2-6.3,60.4-9.3
					c5.3-0.6,11.4-0.6,16.7-0.6c-7.9,2-15.9,3.6-24.2,5c-8-0.4-15.6-0.4-21.9,2.6c-1.5,0.6-2.9,1.1-4.4,1.6
					c8.9-1.3,17.6-2.6,26.3-4.2c4.7,0.3,9.5,0.7,14.3,0.7c-0.1,0-0.2,0.1-0.3,0.1c-3.7,0.8-7.4,1.5-11.2,2.1
					c-7.1-0.4-13.9-0.4-19.7,1.7c-0.7,0.3-1.5,0.6-2.1,0.9c-1.5,0.6-2.9,1.1-4.4,1.6c5.5-0.8,10.9-1.6,16.3-2.5
					c3.3-0.5,6.7-1.1,10-1.7c2.1,0.1,4.2,0.3,6.3,0.4c-0.2,0.1-0.5,0.3-0.7,0.5c-1.8,0.6-7,7.5-4.2,9.2c14.1-0.1,33.9-2.9,33.9-2.3
					c0.9,2.3-23.3,5.4-22.4,6c1.4,0.3,2.7,0.5,4.1,0.7c-1.3,0.5-2.5,1-3.7,1.5c-2.7,0.6-6.4,0-8.3,1.2c-6.4,3.5-13.8,2.3-21.1,4.7
					c-4.6,1.8-10.1,4.1-15.6,6.5c0,1.2-2.8,0.6-1.8,1.8c-5.2,0-11.2,0-13.4,3.4c-0.1,0-0.3,0.1-0.4,0.1c-0.4,0-0.9,0.2-1.4,0.5
					c-8.6-0.6-14.6,2.7-22.4,4.9c-2.7,0.3-5.4,0.5-8.2,0.5c1.8,0,4.6,0.6,6.4,0c0.6-0.2,1.2-0.3,1.8-0.5c7-0.8,13.6-2.3,20.2-3.6
					c0.5-0.3,1.4-0.9,2.2-1.3c0.5,0,1,0.1,1.4,0.1c0.1-0.2,0.2-0.5,0.4-0.7c6.3-1.7,13.5-2.3,18.9-4c10.2-2,21-1,31.4-0.7
					c-5.2,1-10.3,2-15.3,3.2c6.3-1,12.2-2,17.9-3.1c0.9,0,1.8,0,2.6,0h5.5c-1.7-0.3-3.4-0.5-5.1-0.6c3.4-0.7,6.8-1.4,10.1-2.2
					c18.4-2.7,37.4-4.2,56-3.3c-0.4,0.7-0.8,1.4-1.2,2.1c-9,0.4-17.9,0.4-25.3,3.5c5.2,0,8.8-1,13.8-1.1c0,0.3,0,0.8-0.4,1
					c3.2-0.7,6.9-1.3,10.6-1.5c-1.2,1.5-2.5,3-3.8,4.5c-1.8,1.2-4.6,1.2-7.3,1.8c-11.9,1-23.1,0.7-34.9,2.1
					c-10.4-0.2-20.9-0.4-31.1-0.3C362.9,107.8,372.3,106.1,381.4,104z M73.6,119.3c0.9-0.2,1.9-0.5,2.9-0.8
					c-0.2-0.1-0.3-0.3-0.4-0.4C75.1,118.1,74.3,118.6,73.6,119.3z M95,119.9c-6.3-1-14.6,0.3-22.6,1.2c0,0.2-0.1,0.3-0.1,0.5
					C79.1,122.1,87.3,120.7,95,119.9z M120.2,132.1c0-0.1-0.1-0.1-0.2-0.2c0,0.1,0,0.2,0,0.3C120.1,132.1,120.1,132.1,120.2,132.1z
					 M232,113.4c-7.3,2.9-16.5,2.9-25.7,4.1c-2.8,0-5.5,2.3-9.2,2.3c-4.6,0.6-7.3,1.8-11,2.3l2.8,1.2c-6.4-0.6-10.1,2.9-16.5,1.8
					c0,0.6-0.9,1.8-1.8,1.8c-4.6,0.6-9.2-0.6-12.8,0.6c-4.6,0.6-9.2,0.6-12.8,1.8c-0.9,0-2.7,1.8-4.6,2.4c-2.2,0.2-4.5,0.4-6.7,0.5
					c0.1,0.2,0.2,0.3,0.3,0.5c1.8,0,3.7,0,5.5-0.4c5.5-1.2,11.9-2.4,17.4-2.9c13.8-1.2,26.6-3.5,39.4-5.9c2.7-0.6,5.5-1.8,8.3-2.3
					c8.3-2.3,18.4-1.8,23.8-5.9C229.2,114.5,231,114.5,232,113.4z M242.2,87.9c-9.7,2.5-20.4,3.6-29.5,3.1
					c-7.3,0-28.4,3.5-24.8,10.6C197,88.8,248.6,101.4,242.2,87.9z M318.7,77.1c-3.8,0.9-7.6,1.8-11.9,1.8
					C310.8,78.3,314.8,77.7,318.7,77.1z M279.7,101.1c11.9-4.1,24.8-4.7,36.7-7c9.2-1.8,19.3,1.2,27.5-2.9c0-0.6,0-1.2,0-1.8
					l-0.9,0.6c-3.2-0.3-5.8-1.3-8.5-1.8c0.2-0.1,0.3-0.1,0.5-0.2c-0.3,0-0.5,0.1-0.8,0.1c-1.8-0.3-3.7-0.4-5.8,0.1
					c-1,0.3-2,0.6-3,0.8c-11.5,1-23.3,1.9-33.7,5.6c-6.4,1.8-11.9,4.7-18.3,6.5C275.1,101.1,277.8,101.6,279.7,101.1z"/>
				<path class="st2" d="M364.4,102.6c4-0.7,8-1.4,12-2c3.1-0.7,6.2-1.5,9.3-2.3c14.7-3.1,31.9-2.1,47.7-3.5c0.5-1.7,0.5-3.5,0-5.3
					c-17.2-1.9-34.4,1.2-51.5,0.3c-0.1,0.1-0.3,0.1-0.4,0.2c-7.3,3.5-19.3,2.3-28.4,5.3c-9.2,3.5-18.3,4.7-27.5,7.6
					C338.8,102.8,351.4,101.5,364.4,102.6z"/>
				<path class="st2" d="M257.5,130.4c3.6-0.3,7.2-0.7,10.8-1.1c10.1-1.4,19.1-3.1,28.3-5.3c-6.7,0.3-13.5,0.5-20.4,0.5
					C269.4,125.2,263.6,128.2,257.5,130.4z"/>
				<path class="st2" d="M304.1,122.3c-2.5,0.6-5,1.2-7.5,1.8c10-0.5,19.9-1.2,29.8-1.9c16.3-2.4,32.6-4.5,48.9-7.6
					c1.8-0.3,3.7-0.6,5.5-0.8c-30.3-0.7-60.5-1.3-86.2,6.1c-0.5,0.2-1,0.3-1.5,0.4c12.2-0.4,24.3-1.3,36.4-2.2
					C321,119.4,312.5,120.7,304.1,122.3z"/>
				<path class="st2" d="M360.6,103.3c0.9,0,1.8,0,2.6,0.1c1-0.2,2-0.4,3-0.6c-0.6-0.1-1.2-0.1-1.8-0.2
					C363.2,102.8,361.9,103.1,360.6,103.3z"/>
				<path class="st2" d="M334.4,88.1c-0.1,0-0.2,0-0.3-0.1c-2.9,0.3-5.9,0.6-8.8,0.9c-4.1,1.1-8.4,2-12.8,2.7
					C320.4,90.9,328.3,90.3,334.4,88.1z"/>
				<path class="st2" d="M309,74.1c-0.9,0-2.7,0-3.7,0c-0.6,0.4-1.1,0.7-1.7,1.1c0.9,0,1.7,0.1,2.6,0.1L309,74.1z"/>
				<path class="st2" d="M254.9,83.5c16.3-2.3,31.5-4.7,46.6-7.1c0.7-0.4,1.5-0.9,2.2-1.3c-10.1-0.4-20.2,0.4-29.5,3.6
					c-1.8,0.6-4.6,2.3-6.4,2.3c-8.7,0.6-17,2.4-25.2,4.1c3.9-0.5,7.9-1,12-1.6C254.6,83.6,254.8,83.6,254.9,83.5z"/>
			</g>
		</g>
	</g>
</g>
<g class="st0">
	<line class="st1" x1="21.5" y1="144.3" x2="421.4" y2="144.3"/>
	<g>
		<g>
			<g>
				<path class="st2" d="M28.6,160.1c-0.9,0-1.7,0-1.7,0c0,0.2,0,0.4,0,0.6C27.6,160.5,28.1,160.3,28.6,160.1z"/>
				<path class="st2" d="M30.2,153.1c-0.2,0-0.3,0-0.5,0c0.1,0.2,0.1,0.3,0.1,0.5C29.9,153.4,30.1,153.2,30.2,153.1z"/>
				<path class="st2" d="M27,160.7c0.1,2.1,0.8,4.3,0,6.4c-0.9,0-2.7,0-3.7,0c-0.9,1.2,0,2.3,0,3.5c-0.9,0-1.8,0-1.8,0.6
					c-0.6,1.5,0.4,2.6,2.2,2.9C27.6,167.6,37.6,165.3,27,160.7z"/>
				<path class="st2" d="M34.3,156c-1.6,0-3.2,0-4.8,0c-0.5,1.3-1.2,2.7-0.7,4C31.3,159,32.8,157.9,34.3,156z"/>
				<path class="st2" d="M408.2,153.5c0-0.4,0.1-0.5,0.9,0C408.8,153.4,408.5,153.4,408.2,153.5c0,0.3,0,0.8-0.4,1
					c3.2-0.7,6.9-1.3,10.6-1.5c0.5-0.6,0.9-1.3,1.3-1.9c-9,0.4-17.9,0.4-25.3,3.5C399.7,154.6,403.2,153.6,408.2,153.5z"/>
				<path class="st2" d="M420.5,147.6c0.3,0,0.6,0,0.9,0C420.6,147,420.5,147.2,420.5,147.6z"/>
				<path class="st2" d="M260.5,160.8c-5.5,0.5-10.4,2.5-15.3,4.5c10.4-1.7,21.1-2.5,29.1-4.7C269.7,160.7,265.1,160.8,260.5,160.8z
					"/>
				<path class="st2" d="M220.7,173.1c6.9,1.1,12.5-0.4,17.9-2.4c-5.5,0.5-10.9,1-16.4,1.5C221.8,172.5,221.2,172.8,220.7,173.1z"/>
				<path class="st2" d="M228.4,169.4c6.3,0,11.6-2,16.8-4.1C239.3,166.3,233.5,167.5,228.4,169.4z"/>
				<path class="st2" d="M352.6,115.5c4.1-1.7,6.6-2.4,8.1-2.6c0.6-0.8,1.5-1.8,2.6-3.1c-0.2,0-0.5,0-0.7,0c-4.3,1.1-8.6,2-13,2.9
					c-1.8,0.7-3.5,1.5-4.9,2.5C347.3,115.4,350,115.5,352.6,115.5z"/>
				<path class="st2" d="M360.6,112.9C355.3,119.9,366.2,112.1,360.6,112.9L360.6,112.9z"/>
				<path class="st2" d="M334,149.7c-0.2,0-0.4,0-0.6,0c-0.6,0.1-1.2,0.3-1.8,0.4C332.3,150,333.1,149.9,334,149.7z"/>
				<path class="st2" d="M282.9,133.1c3.6-0.2,7.3-0.7,10.8-1.2c-7.4,0.6-14.8,1.2-20.9,3c0.9,0,1.8,0.6,2.8,0.6
					C277.4,134.3,280.1,133.1,282.9,133.1z"/>
				<path class="st2" d="M362.6,144.3c-10,1.5-19.8,3.4-29.2,5.5c-19.3,0.2-37.8,1.6-54.5,6.4c-14.7,4.7-40.4,3.5-55,12.9
					c1.6,0.3,3.1,0.4,4.5,0.4c-2.2,0.8-4.2,1.7-6.1,2.8c-24.2,2-48,3.3-72.8,3.3c-3.7,0-6.4,1.8-10.1,1.8c-3.7,0.1-7.4,0.2-11,0.3
					c0,0.1,0,0.3,0.1,0.4c-15.1,0.7-30,1.9-45.6,3.8c-7.3,0.6-14.7,0-22,0c-2.8,0-2.8-2.3-4.6-2.9c-7.3-2.9-12.8-5.3-21.1-6.5
					c0,0,0-1.2,0-1.8c-1.3,0.2-2.4,0.2-3.3,0c3.9-6.6,14-8.9,3.4-13.5c0,0,0,0,0,0c0.6-0.2,1.1-0.4,1.6-0.6c0.1,0,0.1,0,0.2,0
					c0,0,0,0,0-0.1c2.5-1,4-2.1,5.5-4c-1.6,0-3.2,0-4.8,0c0.3-0.8,0.5-1.6,0.3-2.5c0.1-0.2,0.3-0.3,0.4-0.5c0.7,0,1.3,0,1.3,0
					c0.2-0.5,0.4-0.9,0.5-1.4c4.2-2.5,10.8-3.8,9.6-6.3c-1-1.3-4.1-0.2-7.5,0.6c-0.2-0.2-0.5-0.4-0.7-0.6c4.6-0.6,0-4.1,2.8-4.7
					c3.7,0,7.3-0.6,11-0.6c14.9,0,27.5-0.6,42.2-2.3c0.6-0.1,1.3-0.1,1.9-0.2c7.1-0.7,13.8-0.9,20.8-0.4c-0.4,0.4-0.9,0.8-1.4,1.1
					c5.6,0.4,11.2,0.5,16.8-0.4c13.8-2.3,27.5-4.7,42.2-5.3c15.4-0.5,30.2-1.7,45.8-3.7c-6.4,1.3-12.8,2.5-19.3,2.9
					c-2.9-0.1-5.9-0.1-8.7,0c2.9,0.2,5.8,0.1,8.7,0c11.3,0.2,22.9,0.9,31.6-4.6c0.9,0.5,0.9,1.1,1.9,1.1c6.4,0,12.8,0.6,18.3-1.8
					c0-0.6,2.8-0.6,1.8-1.8c5.5-0.6,11.9-0.6,17.4-1.8c2.4-0.4,4.8-1.5,7.1-2.9c19.7-3.1,39.2-6.3,60.4-9.3
					c5.3-0.6,11.4-0.6,16.7-0.6c-7.9,2-15.9,3.6-24.2,5c-8-0.4-15.6-0.4-21.9,2.6c-1.5,0.6-2.9,1.1-4.4,1.6
					c8.9-1.3,17.6-2.6,26.3-4.2c4.7,0.3,9.5,0.7,14.3,0.7c-0.1,0-0.2,0.1-0.3,0.1c-3.7,0.8-7.4,1.5-11.2,2.1
					c-7.1-0.4-13.9-0.4-19.7,1.7c-0.7,0.3-1.5,0.6-2.1,0.9c-1.5,0.6-2.9,1.1-4.4,1.6c5.5-0.8,10.9-1.6,16.3-2.5
					c3.3-0.5,6.7-1.1,10-1.7c2.1,0.1,4.2,0.3,6.3,0.4c-0.2,0.1-0.5,0.3-0.7,0.5c-1.8,0.6-7,7.5-4.2,9.2c14.1-0.1,33.9-2.9,33.9-2.3
					c0.9,2.3-23.3,5.4-22.4,6c1.4,0.3,2.7,0.5,4.1,0.7c-1.3,0.5-2.5,1-3.7,1.5c-2.7,0.6-6.4,0-8.3,1.2c-6.4,3.5-13.8,2.3-21.1,4.7
					c-4.6,1.8-10.1,4.1-15.6,6.5c0,1.2-2.8,0.6-1.8,1.8c-5.2,0-11.2,0-13.4,3.4c-0.1,0-0.3,0.1-0.4,0.1c-0.4,0-0.9,0.2-1.4,0.5
					c-8.6-0.6-14.6,2.7-22.4,4.9c-2.7,0.3-5.4,0.5-8.2,0.5c1.8,0,4.6,0.6,6.4,0c0.6-0.2,1.2-0.3,1.8-0.5c7-0.8,13.6-2.3,20.2-3.6
					c0.5-0.3,1.4-0.9,2.2-1.3c0.5,0,1,0.1,1.4,0.1c0.1-0.2,0.2-0.5,0.4-0.7c6.3-1.7,13.5-2.3,18.9-4c10.2-2,21-1,31.4-0.7
					c-5.2,1-10.3,2-15.3,3.2c6.3-1,12.2-2,17.9-3.1c0.9,0,1.8,0,2.6,0h5.5c-1.7-0.3-3.4-0.5-5.1-0.6c3.4-0.7,6.8-1.4,10.1-2.2
					c18.4-2.7,37.4-4.2,56-3.3c-0.4,0.7-0.8,1.4-1.2,2.1c-9,0.4-17.9,0.4-25.3,3.5c5.2,0,8.8-1,13.8-1.1c0,0.3,0,0.8-0.4,1
					c3.2-0.7,6.9-1.3,10.6-1.5c-1.2,1.5-2.5,3-3.8,4.5c-1.8,1.2-4.6,1.2-7.3,1.8c-11.9,1-23.1,0.7-34.9,2.1
					c-10.4-0.2-20.9-0.4-31.1-0.3C344.1,148.1,353.5,146.4,362.6,144.3z M54.8,159.6c0.9-0.2,1.9-0.5,2.9-0.8
					c-0.2-0.1-0.3-0.3-0.4-0.4C56.3,158.3,55.5,158.9,54.8,159.6z M76.2,160.2c-6.3-1-14.6,0.3-22.6,1.2c0,0.2-0.1,0.3-0.1,0.5
					C60.3,162.4,68.5,161,76.2,160.2z M101.4,172.4c0-0.1-0.1-0.1-0.2-0.2c0,0.1,0,0.2,0,0.3C101.3,172.4,101.3,172.4,101.4,172.4z
					 M213.2,153.7c-7.3,2.9-16.5,2.9-25.7,4.1c-2.8,0-5.5,2.3-9.2,2.3c-4.6,0.6-7.3,1.8-11,2.3l2.8,1.2c-6.4-0.6-10.1,2.9-16.5,1.8
					c0,0.6-0.9,1.8-1.8,1.8c-4.6,0.6-9.2-0.6-12.8,0.6c-4.6,0.6-9.2,0.6-12.8,1.8c-0.9,0-2.7,1.8-4.6,2.4c-2.2,0.2-4.5,0.4-6.7,0.5
					c0.1,0.2,0.2,0.3,0.3,0.5c1.8,0,3.7,0,5.5-0.4c5.5-1.2,11.9-2.4,17.4-2.9c13.8-1.2,26.6-3.5,39.4-5.9c2.7-0.6,5.5-1.8,8.3-2.3
					c8.3-2.3,18.4-1.8,23.8-5.9C210.4,154.8,212.2,154.8,213.2,153.7z M223.4,128.2c-9.7,2.5-20.4,3.6-29.5,3.1
					c-7.3,0-28.4,3.5-24.8,10.6C178.2,129.1,229.8,141.7,223.4,128.2z M299.9,117.4c-3.8,0.9-7.6,1.8-11.9,1.8
					C292,118.6,296,118,299.9,117.4z M260.9,141.3c11.9-4.1,24.8-4.7,36.7-7c9.2-1.8,19.3,1.2,27.5-2.9c0-0.6,0-1.2,0-1.8l-0.9,0.6
					c-3.2-0.3-5.8-1.3-8.5-1.8c0.2-0.1,0.3-0.1,0.5-0.2c-0.3,0-0.5,0.1-0.8,0.1c-1.8-0.3-3.7-0.4-5.8,0.1c-1,0.3-2,0.6-3,0.8
					c-11.5,1-23.3,1.9-33.7,5.6c-6.4,1.8-11.9,4.7-18.3,6.5C256.3,141.3,259,141.9,260.9,141.3z"/>
				<path class="st2" d="M345.6,142.9c4-0.7,8-1.4,12-2c3.1-0.7,6.2-1.5,9.3-2.3c14.7-3.1,31.9-2.1,47.7-3.5c0.5-1.7,0.5-3.5,0-5.3
					c-17.2-1.9-34.4,1.2-51.5,0.3c-0.1,0.1-0.3,0.1-0.4,0.2c-7.3,3.5-19.3,2.3-28.4,5.3c-9.2,3.5-18.3,4.7-27.5,7.6
					C320,143.1,332.6,141.8,345.6,142.9z"/>
				<path class="st2" d="M238.7,170.7c3.6-0.3,7.2-0.7,10.8-1.1c10.1-1.4,19.1-3.1,28.3-5.3c-6.7,0.3-13.5,0.5-20.4,0.5
					C250.6,165.5,244.8,168.5,238.7,170.7z"/>
				<path class="st2" d="M285.3,162.6c-2.5,0.6-5,1.2-7.5,1.8c10-0.5,19.9-1.2,29.8-1.9c16.3-2.4,32.6-4.5,48.9-7.6
					c1.8-0.3,3.7-0.6,5.5-0.8c-30.3-0.7-60.5-1.3-86.2,6.1c-0.5,0.2-1,0.3-1.5,0.4c12.2-0.4,24.3-1.3,36.4-2.2
					C302.2,159.7,293.7,161,285.3,162.6z"/>
				<path class="st2" d="M341.8,143.6c0.9,0,1.8,0,2.6,0.1c1-0.2,2-0.4,3-0.6c-0.6-0.1-1.2-0.1-1.8-0.2
					C344.4,143.1,343.1,143.3,341.8,143.6z"/>
				<path class="st2" d="M315.6,128.4c-0.1,0-0.2,0-0.3-0.1c-2.9,0.3-5.9,0.6-8.8,0.9c-4.1,1.1-8.4,2-12.8,2.7
					C301.6,131.2,309.5,130.5,315.6,128.4z"/>
				<path class="st2" d="M290.2,114.3c-0.9,0-2.7,0-3.7,0c-0.6,0.4-1.1,0.7-1.7,1.1c0.9,0,1.7,0.1,2.6,0.1L290.2,114.3z"/>
				<path class="st2" d="M236.1,123.8c16.3-2.3,31.5-4.7,46.6-7.1c0.7-0.4,1.5-0.9,2.2-1.3c-10.1-0.4-20.2,0.4-29.5,3.6
					c-1.8,0.6-4.6,2.3-6.4,2.3c-8.7,0.6-17,2.4-25.2,4.1c3.9-0.5,7.9-1,12-1.6C235.8,123.9,236,123.8,236.1,123.8z"/>
			</g>
		</g>
	</g>
</g>
<g class="st0">
	<line class="st1" x1="40.3" y1="189" x2="440.2" y2="189"/>
	<g>
		<g>
			<g>
				<path class="st2" d="M47.4,204.7c-0.9,0-1.7,0-1.7,0c0,0.2,0,0.4,0,0.6C46.4,205.1,46.9,204.9,47.4,204.7z"/>
				<path class="st2" d="M49,197.7c-0.2,0-0.3,0-0.5,0c0.1,0.2,0.1,0.3,0.1,0.5C48.7,198,48.9,197.8,49,197.7z"/>
				<path class="st2" d="M45.8,205.3c0.1,2.1,0.8,4.3,0,6.4c-0.9,0-2.7,0-3.7,0c-0.9,1.2,0,2.3,0,3.5c-0.9,0-1.8,0-1.8,0.6
					c-0.6,1.5,0.4,2.6,2.2,2.9C46.4,212.2,56.4,209.9,45.8,205.3z"/>
				<path class="st2" d="M53.1,200.6c-1.6,0-3.2,0-4.8,0c-0.5,1.3-1.2,2.7-0.7,4C50.1,203.7,51.6,202.5,53.1,200.6z"/>
				<path class="st2" d="M427,198.1c0-0.4,0.1-0.5,0.9,0C427.6,198.1,427.3,198.1,427,198.1c0,0.3,0,0.8-0.4,1
					c3.2-0.7,6.9-1.3,10.6-1.5c0.5-0.6,0.9-1.3,1.3-1.9c-9,0.4-17.9,0.4-25.3,3.5C418.5,199.2,422,198.2,427,198.1z"/>
				<path class="st2" d="M439.3,192.2c0.3,0,0.6,0,0.9,0C439.4,191.7,439.3,191.9,439.3,192.2z"/>
				<path class="st2" d="M279.3,205.5c-5.5,0.5-10.4,2.5-15.3,4.5c10.4-1.7,21.1-2.5,29.1-4.7C288.5,205.4,283.9,205.5,279.3,205.5z
					"/>
				<path class="st2" d="M239.5,217.7c6.9,1.1,12.5-0.4,17.9-2.4c-5.5,0.5-10.9,1-16.4,1.5C240.6,217.1,240,217.4,239.5,217.7z"/>
				<path class="st2" d="M247.2,214.1c6.3,0,11.6-2,16.8-4.1C258.1,210.9,252.3,212.1,247.2,214.1z"/>
				<path class="st2" d="M371.4,160.1c4.1-1.7,6.6-2.4,8.1-2.6c0.6-0.8,1.5-1.8,2.6-3.1c-0.2,0-0.5,0-0.7,0c-4.3,1.1-8.6,2-13,2.9
					c-1.8,0.7-3.5,1.5-4.9,2.5C366.1,160,368.8,160.1,371.4,160.1z"/>
				<path class="st2" d="M379.4,157.5C374.1,164.5,385,156.8,379.4,157.5L379.4,157.5z"/>
				<path class="st2" d="M352.8,194.4c-0.2,0-0.4,0-0.6,0c-0.6,0.1-1.2,0.3-1.8,0.4C351.1,194.6,351.9,194.5,352.8,194.4z"/>
				<path class="st2" d="M301.7,177.7c3.6-0.2,7.3-0.7,10.8-1.2c-7.4,0.6-14.8,1.2-20.9,3c0.9,0,1.8,0.6,2.8,0.6
					C296.2,178.9,298.9,177.7,301.7,177.7z"/>
				<path class="st2" d="M381.4,188.9c-10,1.5-19.8,3.4-29.2,5.5c-19.3,0.2-37.8,1.6-54.5,6.4c-14.7,4.7-40.4,3.5-55,12.9
					c1.6,0.3,3.1,0.4,4.5,0.4c-2.2,0.8-4.2,1.7-6.1,2.8c-24.2,2-48,3.3-72.8,3.3c-3.7,0-6.4,1.8-10.1,1.8c-3.7,0.1-7.4,0.2-11,0.3
					c0,0.1,0,0.3,0.1,0.4c-15.1,0.7-30,1.9-45.6,3.8c-7.3,0.6-14.7,0-22,0c-2.8,0-2.8-2.3-4.6-2.9c-7.3-2.9-12.8-5.3-21.1-6.5
					c0,0,0-1.2,0-1.8c-1.3,0.2-2.4,0.2-3.3,0c3.9-6.6,14-8.9,3.4-13.5c0,0,0,0,0,0c0.6-0.2,1.1-0.4,1.6-0.6c0.1,0,0.1,0,0.2,0
					c0,0,0,0,0-0.1c2.5-1,4-2.1,5.5-4c-1.6,0-3.2,0-4.8,0c0.3-0.8,0.5-1.6,0.3-2.5c0.1-0.2,0.3-0.3,0.4-0.5c0.7,0,1.3,0,1.3,0
					c0.2-0.5,0.4-0.9,0.5-1.4c4.2-2.5,10.8-3.8,9.6-6.3c-1-1.3-4.1-0.2-7.5,0.6c-0.2-0.2-0.5-0.4-0.7-0.6c4.6-0.6,0-4.1,2.8-4.7
					c3.7,0,7.3-0.6,11-0.6c14.9,0,27.5-0.6,42.2-2.3c0.6-0.1,1.3-0.1,1.9-0.2c7.1-0.7,13.8-0.9,20.8-0.4c-0.4,0.4-0.9,0.8-1.4,1.1
					c5.6,0.4,11.2,0.5,16.8-0.4c13.8-2.3,27.5-4.7,42.2-5.3c15.4-0.5,30.2-1.7,45.8-3.7c-6.4,1.3-12.8,2.5-19.3,2.9
					c-2.9-0.1-5.9-0.1-8.7,0c2.9,0.2,5.8,0.1,8.7,0c11.3,0.2,22.9,0.9,31.6-4.6c0.9,0.5,0.9,1.1,1.9,1.1c6.4,0,12.8,0.6,18.3-1.8
					c0-0.6,2.8-0.6,1.8-1.8c5.5-0.6,11.9-0.6,17.4-1.8c2.4-0.4,4.8-1.5,7.1-2.9c19.7-3.1,39.2-6.3,60.4-9.3
					c5.3-0.6,11.4-0.6,16.7-0.6c-7.9,2-15.9,3.6-24.2,5c-8-0.4-15.6-0.4-21.9,2.6c-1.5,0.6-2.9,1.1-4.4,1.6
					c8.9-1.3,17.6-2.6,26.3-4.2c4.7,0.3,9.5,0.7,14.3,0.7c-0.1,0-0.2,0.1-0.3,0.1c-3.7,0.8-7.4,1.5-11.2,2.1
					c-7.1-0.4-13.9-0.4-19.7,1.7c-0.7,0.3-1.5,0.6-2.1,0.9c-1.5,0.6-2.9,1.1-4.4,1.6c5.5-0.8,10.9-1.6,16.3-2.5
					c3.3-0.5,6.7-1.1,10-1.7c2.1,0.1,4.2,0.3,6.3,0.4c-0.2,0.1-0.5,0.3-0.7,0.5c-1.8,0.6-7,7.5-4.2,9.2c14.1-0.1,33.9-2.9,33.9-2.3
					c0.9,2.3-23.3,5.4-22.4,6c1.4,0.3,2.7,0.5,4.1,0.7c-1.3,0.5-2.5,1-3.7,1.5c-2.7,0.6-6.4,0-8.3,1.2c-6.4,3.5-13.8,2.3-21.1,4.7
					c-4.6,1.8-10.1,4.1-15.6,6.5c0,1.2-2.8,0.6-1.8,1.8c-5.2,0-11.2,0-13.4,3.4c-0.1,0-0.3,0.1-0.4,0.1c-0.4,0-0.9,0.2-1.4,0.5
					c-8.6-0.6-14.6,2.7-22.4,4.9c-2.7,0.3-5.4,0.5-8.2,0.5c1.8,0,4.6,0.6,6.4,0c0.6-0.2,1.2-0.3,1.8-0.5c7-0.8,13.6-2.3,20.2-3.6
					c0.5-0.3,1.4-0.9,2.2-1.3c0.5,0,1,0.1,1.4,0.1c0.1-0.2,0.2-0.5,0.4-0.7c6.3-1.7,13.5-2.3,18.9-4c10.2-2,21-1,31.4-0.7
					c-5.2,1-10.3,2-15.3,3.2c6.3-1,12.2-2,17.9-3.1c0.9,0,1.8,0,2.6,0h5.5c-1.7-0.3-3.4-0.5-5.1-0.6c3.4-0.7,6.8-1.4,10.1-2.2
					c18.4-2.7,37.4-4.2,56-3.3c-0.4,0.7-0.8,1.4-1.2,2.1c-9,0.4-17.9,0.4-25.3,3.5c5.2,0,8.8-1,13.8-1.1c0,0.3,0,0.8-0.4,1
					c3.2-0.7,6.9-1.3,10.6-1.5c-1.2,1.5-2.5,3-3.8,4.5c-1.8,1.2-4.6,1.2-7.3,1.8c-11.9,1-23.1,0.7-34.9,2.1
					c-10.4-0.2-20.9-0.4-31.1-0.3C362.9,192.7,372.3,191,381.4,188.9z M73.6,204.2c0.9-0.2,1.9-0.5,2.9-0.8
					c-0.2-0.1-0.3-0.3-0.4-0.4C75.1,203,74.3,203.5,73.6,204.2z M95,204.8c-6.3-1-14.6,0.3-22.6,1.2c0,0.2-0.1,0.3-0.1,0.5
					C79.1,207,87.3,205.6,95,204.8z M120.2,217c0-0.1-0.1-0.1-0.2-0.2c0,0.1,0,0.2,0,0.3C120.1,217,120.1,217,120.2,217z M232,198.3
					c-7.3,2.9-16.5,2.9-25.7,4.1c-2.8,0-5.5,2.3-9.2,2.3c-4.6,0.6-7.3,1.8-11,2.3l2.8,1.2c-6.4-0.6-10.1,2.9-16.5,1.8
					c0,0.6-0.9,1.8-1.8,1.8c-4.6,0.6-9.2-0.6-12.8,0.6c-4.6,0.6-9.2,0.6-12.8,1.8c-0.9,0-2.7,1.8-4.6,2.4c-2.2,0.2-4.5,0.4-6.7,0.5
					c0.1,0.2,0.2,0.3,0.3,0.5c1.8,0,3.7,0,5.5-0.4c5.5-1.2,11.9-2.4,17.4-2.9c13.8-1.2,26.6-3.5,39.4-5.9c2.7-0.6,5.5-1.8,8.3-2.3
					c8.3-2.3,18.4-1.8,23.8-5.9C229.2,199.5,231,199.5,232,198.3z M242.2,172.8c-9.7,2.5-20.4,3.6-29.5,3.1
					c-7.3,0-28.4,3.5-24.8,10.6C197,173.8,248.6,186.3,242.2,172.8z M318.7,162.1c-3.8,0.9-7.6,1.8-11.9,1.8
					C310.8,163.2,314.8,162.6,318.7,162.1z M279.7,186c11.9-4.1,24.8-4.7,36.7-7c9.2-1.8,19.3,1.2,27.5-2.9c0-0.6,0-1.2,0-1.8
					l-0.9,0.6c-3.2-0.3-5.8-1.3-8.5-1.8c0.2-0.1,0.3-0.1,0.5-0.2c-0.3,0-0.5,0.1-0.8,0.1c-1.8-0.3-3.7-0.4-5.8,0.1
					c-1,0.3-2,0.6-3,0.8c-11.5,1-23.3,1.9-33.7,5.6c-6.4,1.8-11.9,4.7-18.3,6.5C275.1,186,277.8,186.5,279.7,186z"/>
				<path class="st2" d="M364.4,187.5c4-0.7,8-1.4,12-2c3.1-0.7,6.2-1.5,9.3-2.3c14.7-3.1,31.9-2.1,47.7-3.5c0.5-1.7,0.5-3.5,0-5.3
					c-17.2-1.9-34.4,1.2-51.5,0.3c-0.1,0.1-0.3,0.1-0.4,0.2c-7.3,3.5-19.3,2.3-28.4,5.3c-9.2,3.5-18.3,4.7-27.5,7.6
					C338.8,187.7,351.4,186.5,364.4,187.5z"/>
				<path class="st2" d="M257.5,215.4c3.6-0.3,7.2-0.7,10.8-1.1c10.1-1.4,19.1-3.1,28.3-5.3c-6.7,0.3-13.5,0.5-20.4,0.5
					C269.4,210.1,263.6,213.1,257.5,215.4z"/>
				<path class="st2" d="M304.1,207.2c-2.5,0.6-5,1.2-7.5,1.8c10-0.5,19.9-1.2,29.8-1.9c16.3-2.4,32.6-4.5,48.9-7.6
					c1.8-0.3,3.7-0.6,5.5-0.8c-30.3-0.7-60.5-1.3-86.2,6.1c-0.5,0.2-1,0.3-1.5,0.4c12.2-0.4,24.3-1.3,36.4-2.2
					C321,204.3,312.5,205.6,304.1,207.2z"/>
				<path class="st2" d="M360.6,188.2c0.9,0,1.8,0,2.6,0.1c1-0.2,2-0.4,3-0.6c-0.6-0.1-1.2-0.1-1.8-0.2
					C363.2,187.7,361.9,188,360.6,188.2z"/>
				<path class="st2" d="M334.4,173c-0.1,0-0.2,0-0.3-0.1c-2.9,0.3-5.9,0.6-8.8,0.9c-4.1,1.1-8.4,2-12.8,2.7
					C320.4,175.9,328.3,175.2,334.4,173z"/>
				<path class="st2" d="M309,159c-0.9,0-2.7,0-3.7,0c-0.6,0.4-1.1,0.7-1.7,1.1c0.9,0,1.7,0.1,2.6,0.1L309,159z"/>
				<path class="st2" d="M254.9,168.5c16.3-2.3,31.5-4.7,46.6-7.1c0.7-0.4,1.5-0.9,2.2-1.3c-10.1-0.4-20.2,0.4-29.5,3.6
					c-1.8,0.6-4.6,2.3-6.4,2.3c-8.7,0.6-17,2.4-25.2,4.1c3.9-0.5,7.9-1,12-1.6C254.6,168.5,254.8,168.5,254.9,168.5z"/>
			</g>
		</g>
	</g>
</g>
<g class="st0">
	<line class="st1" x1="93.2" y1="223.6" x2="493.2" y2="223.6"/>
	<g>
		<g>
			<g>
				<path class="st2" d="M100.4,239.4c-0.9,0-1.7,0-1.7,0c0,0.2,0,0.4,0,0.6C99.4,239.8,99.9,239.6,100.4,239.4z"/>
				<path class="st2" d="M102,232.3c-0.2,0-0.3,0-0.5,0c0.1,0.2,0.1,0.3,0.1,0.5C101.7,232.6,101.9,232.5,102,232.3z"/>
				<path class="st2" d="M98.8,240c0.1,2.1,0.8,4.3,0,6.4c-0.9,0-2.7,0-3.7,0c-0.9,1.2,0,2.3,0,3.5c-0.9,0-1.8,0-1.8,0.6
					c-0.6,1.5,0.4,2.6,2.2,2.9C99.3,246.9,109.4,244.5,98.8,240z"/>
				<path class="st2" d="M106.1,235.3c-1.6,0-3.2,0-4.8,0c-0.5,1.3-1.2,2.7-0.7,4C103.1,238.3,104.6,237.2,106.1,235.3z"/>
				<path class="st2" d="M480,232.7c0-0.4,0.1-0.5,0.9,0C480.6,232.7,480.3,232.7,480,232.7c0,0.3,0,0.8-0.4,1
					c3.2-0.7,6.9-1.3,10.6-1.5c0.5-0.6,0.9-1.3,1.3-1.9c-9,0.4-17.9,0.4-25.3,3.5C471.5,233.9,475,232.8,480,232.7z"/>
				<path class="st2" d="M492.3,226.8c0.3,0,0.6,0,0.9,0C492.3,226.3,492.3,226.5,492.3,226.8z"/>
				<path class="st2" d="M332.3,240.1c-5.5,0.5-10.4,2.5-15.3,4.5c10.4-1.7,21.1-2.5,29.1-4.7C341.5,240,336.9,240.1,332.3,240.1z"
					/>
				<path class="st2" d="M292.5,252.3c6.9,1.1,12.5-0.4,17.9-2.4c-5.5,0.5-10.9,1-16.4,1.5C293.6,251.8,293,252,292.5,252.3z"/>
				<path class="st2" d="M300.1,248.7c6.3,0,11.6-2,16.8-4.1C311.1,245.5,305.3,246.8,300.1,248.7z"/>
				<path class="st2" d="M424.4,194.8c4.1-1.7,6.6-2.4,8.1-2.6c0.6-0.8,1.5-1.8,2.6-3.1c-0.2,0-0.5,0-0.7,0c-4.3,1.1-8.6,2-13,2.9
					c-1.8,0.7-3.5,1.5-4.9,2.5C419.1,194.6,421.7,194.8,424.4,194.8z"/>
				<path class="st2" d="M432.4,192.1C427.1,199.1,438,191.4,432.4,192.1L432.4,192.1z"/>
				<path class="st2" d="M405.7,229c-0.2,0-0.4,0-0.6,0c-0.6,0.1-1.2,0.3-1.8,0.4C404.1,229.3,404.9,229.1,405.7,229z"/>
				<path class="st2" d="M354.7,212.4c3.6-0.2,7.3-0.7,10.8-1.2c-7.4,0.6-14.8,1.2-20.9,3c0.9,0,1.8,0.6,2.8,0.6
					C349.2,213.5,351.9,212.4,354.7,212.4z"/>
				<path class="st2" d="M434.4,223.5c-10,1.5-19.8,3.4-29.2,5.5c-19.3,0.2-37.8,1.6-54.5,6.4c-14.7,4.7-40.4,3.5-55,12.9
					c1.6,0.3,3.1,0.4,4.5,0.4c-2.2,0.8-4.2,1.7-6.1,2.8c-24.2,2-48,3.3-72.8,3.3c-3.7,0-6.4,1.8-10.1,1.8c-3.7,0.1-7.4,0.2-11,0.3
					c0,0.1,0,0.3,0.1,0.4c-15.1,0.7-30,1.9-45.6,3.8c-7.3,0.6-14.7,0-22,0c-2.8,0-2.8-2.3-4.6-2.9c-7.3-2.9-12.8-5.3-21.1-6.5
					c0,0,0-1.2,0-1.8c-1.3,0.2-2.4,0.2-3.3,0c3.9-6.6,14-8.9,3.4-13.5c0,0,0,0,0,0c0.6-0.2,1.1-0.4,1.6-0.6c0.1,0,0.1,0,0.2,0
					c0,0,0,0,0-0.1c2.5-1,4-2.1,5.5-4c-1.6,0-3.2,0-4.8,0c0.3-0.8,0.5-1.6,0.3-2.5c0.1-0.2,0.3-0.3,0.4-0.5c0.7,0,1.3,0,1.3,0
					c0.2-0.5,0.4-0.9,0.5-1.4c4.2-2.5,10.8-3.8,9.6-6.3c-1-1.3-4.1-0.2-7.5,0.6c-0.2-0.2-0.5-0.4-0.7-0.6c4.6-0.6,0-4.1,2.8-4.7
					c3.7,0,7.3-0.6,11-0.6c14.9,0,27.5-0.6,42.2-2.3c0.6-0.1,1.3-0.1,1.9-0.2c7.1-0.7,13.8-0.9,20.8-0.4c-0.4,0.4-0.9,0.8-1.4,1.1
					c5.6,0.4,11.2,0.5,16.8-0.4c13.8-2.3,27.5-4.7,42.2-5.3c15.4-0.5,30.2-1.7,45.8-3.7c-6.4,1.3-12.8,2.5-19.3,2.9
					c-2.9-0.1-5.9-0.1-8.7,0c2.9,0.2,5.8,0.1,8.7,0c11.3,0.2,22.9,0.9,31.6-4.6c0.9,0.5,0.9,1.1,1.9,1.1c6.4,0,12.8,0.6,18.3-1.8
					c0-0.6,2.8-0.6,1.8-1.8c5.5-0.6,11.9-0.6,17.4-1.8c2.4-0.4,4.8-1.5,7.1-2.9c19.7-3.1,39.2-6.3,60.4-9.3
					c5.3-0.6,11.4-0.6,16.7-0.6c-7.9,2-15.9,3.6-24.2,5c-8-0.4-15.6-0.4-21.9,2.6c-1.5,0.6-2.9,1.1-4.4,1.6
					c8.9-1.3,17.6-2.6,26.3-4.2c4.7,0.3,9.5,0.7,14.3,0.7c-0.1,0-0.2,0.1-0.3,0.1c-3.7,0.8-7.4,1.5-11.2,2.1
					c-7.1-0.4-13.9-0.4-19.7,1.7c-0.7,0.3-1.5,0.6-2.1,0.9c-1.5,0.6-2.9,1.1-4.4,1.6c5.5-0.8,10.9-1.6,16.3-2.5
					c3.3-0.5,6.7-1.1,10-1.7c2.1,0.1,4.2,0.3,6.3,0.4c-0.2,0.1-0.5,0.3-0.7,0.5c-1.8,0.6-7,7.5-4.2,9.2c14.1-0.1,33.9-2.9,33.9-2.3
					c0.9,2.3-23.3,5.4-22.4,6c1.4,0.3,2.7,0.5,4.1,0.7c-1.3,0.5-2.5,1-3.7,1.5c-2.7,0.6-6.4,0-8.3,1.2c-6.4,3.5-13.8,2.3-21.1,4.7
					c-4.6,1.8-10.1,4.1-15.6,6.5c0,1.2-2.8,0.6-1.8,1.8c-5.2,0-11.2,0-13.4,3.4c-0.1,0-0.3,0.1-0.4,0.1c-0.4,0-0.9,0.2-1.4,0.5
					c-8.6-0.6-14.6,2.7-22.4,4.9c-2.7,0.3-5.4,0.5-8.2,0.5c1.8,0,4.6,0.6,6.4,0c0.6-0.2,1.2-0.3,1.8-0.5c7-0.8,13.6-2.3,20.2-3.6
					c0.5-0.3,1.4-0.9,2.2-1.3c0.5,0,1,0.1,1.4,0.1c0.1-0.2,0.2-0.5,0.4-0.7c6.3-1.7,13.5-2.3,18.9-4c10.2-2,21-1,31.4-0.7
					c-5.2,1-10.3,2-15.3,3.2c6.3-1,12.2-2,17.9-3.1c0.9,0,1.8,0,2.6,0h5.5c-1.7-0.3-3.4-0.5-5.1-0.6c3.4-0.7,6.8-1.4,10.1-2.2
					c18.4-2.7,37.4-4.2,56-3.3c-0.4,0.7-0.8,1.4-1.2,2.1c-9,0.4-17.9,0.4-25.3,3.5c5.2,0,8.8-1,13.8-1.1c0,0.3,0,0.8-0.4,1
					c3.2-0.7,6.9-1.3,10.6-1.5c-1.2,1.5-2.5,3-3.8,4.5c-1.8,1.2-4.6,1.2-7.3,1.8c-11.9,1-23.1,0.7-34.9,2.1
					c-10.4-0.2-20.9-0.4-31.1-0.3C415.9,227.3,425.3,225.6,434.4,223.5z M126.6,238.9c0.9-0.2,1.9-0.5,2.9-0.8
					c-0.2-0.1-0.3-0.3-0.4-0.4C128.1,237.6,127.2,238.2,126.6,238.9z M148,239.4c-6.3-1-14.6,0.3-22.6,1.2c0,0.2-0.1,0.3-0.1,0.5
					C132.1,241.7,140.3,240.2,148,239.4z M173.2,251.6c0-0.1-0.1-0.1-0.2-0.2c0,0.1,0,0.2,0,0.3
					C173.1,251.7,173.1,251.6,173.2,251.6z M284.9,232.9c-7.3,2.9-16.5,2.9-25.7,4.1c-2.8,0-5.5,2.3-9.2,2.3
					c-4.6,0.6-7.3,1.8-11,2.3l2.8,1.2c-6.4-0.6-10.1,2.9-16.5,1.8c0,0.6-0.9,1.8-1.8,1.8c-4.6,0.6-9.2-0.6-12.8,0.6
					c-4.6,0.6-9.2,0.6-12.8,1.8c-0.9,0-2.7,1.8-4.6,2.4c-2.2,0.2-4.5,0.4-6.7,0.5c0.1,0.2,0.2,0.3,0.3,0.5c1.8,0,3.7,0,5.5-0.4
					c5.5-1.2,11.9-2.4,17.4-2.9c13.8-1.2,26.6-3.5,39.4-5.9c2.7-0.6,5.5-1.8,8.3-2.3c8.3-2.3,18.4-1.8,23.8-5.9
					C282.2,234.1,284,234.1,284.9,232.9z M295.2,207.5c-9.7,2.5-20.4,3.6-29.5,3.1c-7.3,0-28.4,3.5-24.8,10.6
					C250,208.4,301.6,220.9,295.2,207.5z M371.7,196.7c-3.8,0.9-7.6,1.8-11.9,1.8C363.8,197.8,367.7,197.3,371.7,196.7z
					 M332.6,220.6c11.9-4.1,24.8-4.7,36.7-7c9.2-1.8,19.3,1.2,27.5-2.9c0-0.6,0-1.2,0-1.8l-0.9,0.6c-3.2-0.3-5.8-1.3-8.5-1.8
					c0.2-0.1,0.3-0.1,0.5-0.2c-0.3,0-0.5,0.1-0.8,0.1c-1.8-0.3-3.7-0.4-5.8,0.1c-1,0.3-2,0.6-3,0.8c-11.5,1-23.3,1.9-33.7,5.6
					c-6.4,1.8-11.9,4.7-18.3,6.5C328.1,220.6,330.8,221.2,332.6,220.6z"/>
				<path class="st2" d="M417.4,222.1c4-0.7,8-1.4,12-2c3.1-0.7,6.2-1.5,9.3-2.3c14.7-3.1,31.9-2.1,47.7-3.5c0.5-1.7,0.5-3.5,0-5.3
					c-17.2-1.9-34.4,1.2-51.5,0.3c-0.1,0.1-0.3,0.1-0.4,0.2c-7.3,3.5-19.3,2.3-28.4,5.3c-9.2,3.5-18.3,4.7-27.5,7.6
					C391.8,222.4,404.4,221.1,417.4,222.1z"/>
				<path class="st2" d="M310.4,250c3.6-0.3,7.2-0.7,10.8-1.1c10.1-1.4,19.1-3.1,28.3-5.3c-6.7,0.3-13.5,0.5-20.4,0.5
					C322.4,244.8,316.6,247.7,310.4,250z"/>
				<path class="st2" d="M357.1,241.9c-2.5,0.6-5,1.2-7.5,1.8c10-0.5,19.9-1.2,29.8-1.9c16.3-2.4,32.6-4.5,48.9-7.6
					c1.8-0.3,3.7-0.6,5.5-0.8c-30.3-0.7-60.5-1.3-86.2,6.1c-0.5,0.2-1,0.3-1.5,0.4c12.2-0.4,24.3-1.3,36.4-2.2
					C374,238.9,365.5,240.3,357.1,241.9z"/>
				<path class="st2" d="M413.6,222.8c0.9,0,1.8,0,2.6,0.1c1-0.2,2-0.4,3-0.6c-0.6-0.1-1.2-0.1-1.8-0.2
					C416.1,222.4,414.9,222.6,413.6,222.8z"/>
				<path class="st2" d="M387.4,207.7c-0.1,0-0.2,0-0.3-0.1c-2.9,0.3-5.9,0.6-8.8,0.9c-4.1,1.1-8.4,2-12.8,2.7
					C373.4,210.5,381.3,209.8,387.4,207.7z"/>
				<path class="st2" d="M362,193.6c-0.9,0-2.7,0-3.7,0c-0.6,0.4-1.1,0.7-1.7,1.1c0.9,0,1.7,0.1,2.6,0.1L362,193.6z"/>
				<path class="st2" d="M307.9,203.1c16.3-2.3,31.5-4.7,46.6-7.1c0.7-0.4,1.5-0.9,2.2-1.3c-10.1-0.4-20.2,0.4-29.5,3.6
					c-1.8,0.6-4.6,2.3-6.4,2.3c-8.7,0.6-17,2.4-25.2,4.1c3.9-0.5,7.9-1,12-1.6C307.6,203.1,307.7,203.1,307.9,203.1z"/>
			</g>
		</g>
	</g>
</g>
<g class="st0">
	<line class="st1" x1="65.9" y1="262.7" x2="465.8" y2="262.7"/>
	<g>
		<g>
			<g>
				<path class="st2" d="M73,278.5c-0.9,0-1.7,0-1.7,0c0,0.2,0,0.4,0,0.6C72,278.9,72.5,278.7,73,278.5z"/>
				<path class="st2" d="M74.7,271.4c-0.2,0-0.3,0-0.5,0c0.1,0.2,0.1,0.3,0.1,0.5C74.4,271.7,74.5,271.6,74.7,271.4z"/>
				<path class="st2" d="M71.4,279.1c0.1,2.1,0.8,4.3,0,6.4c-0.9,0-2.7,0-3.7,0c-0.9,1.2,0,2.3,0,3.5c-0.9,0-1.8,0-1.8,0.6
					c-0.6,1.5,0.4,2.6,2.2,2.9C72,286,82.1,283.6,71.4,279.1z"/>
				<path class="st2" d="M78.7,274.4c-1.6,0-3.2,0-4.8,0c-0.5,1.3-1.2,2.7-0.7,4C75.7,277.4,77.2,276.3,78.7,274.4z"/>
				<path class="st2" d="M452.7,271.8c0-0.4,0.1-0.5,0.9,0C453.3,271.8,453,271.8,452.7,271.8c0,0.3,0,0.8-0.4,1
					c3.2-0.7,6.9-1.3,10.6-1.5c0.5-0.6,0.9-1.3,1.3-1.9c-9,0.4-17.9,0.4-25.3,3.5C444.1,273,447.7,271.9,452.7,271.8z"/>
				<path class="st2" d="M464.9,266c0.3,0,0.6,0,0.9,0C465,265.4,464.9,265.6,464.9,266z"/>
				<path class="st2" d="M304.9,279.2c-5.5,0.5-10.4,2.5-15.3,4.5c10.4-1.7,21.1-2.5,29.1-4.7C314.1,279.1,309.6,279.2,304.9,279.2z
					"/>
				<path class="st2" d="M265.2,291.5c6.9,1.1,12.5-0.4,17.9-2.4c-5.5,0.5-10.9,1-16.4,1.5C266.2,290.9,265.7,291.1,265.2,291.5z"/>
				<path class="st2" d="M272.8,287.8c6.3,0,11.6-2,16.8-4.1C283.7,284.6,278,285.9,272.8,287.8z"/>
				<path class="st2" d="M397,233.9c4.1-1.7,6.6-2.4,8.1-2.6c0.6-0.8,1.5-1.8,2.6-3.1c-0.2,0-0.5,0-0.7,0c-4.3,1.1-8.6,2-13,2.9
					c-1.8,0.7-3.5,1.5-4.9,2.5C391.7,233.7,394.4,233.9,397,233.9z"/>
				<path class="st2" d="M405.1,231.2C399.7,238.3,410.6,230.5,405.1,231.2L405.1,231.2z"/>
				<path class="st2" d="M378.4,268.1c-0.2,0-0.4,0-0.6,0c-0.6,0.1-1.2,0.3-1.8,0.4C376.8,268.4,377.6,268.2,378.4,268.1z"/>
				<path class="st2" d="M327.3,251.5c3.6-0.2,7.3-0.7,10.8-1.2c-7.4,0.6-14.8,1.2-20.9,3c0.9,0,1.8,0.6,2.8,0.6
					C321.8,252.6,324.6,251.5,327.3,251.5z"/>
				<path class="st2" d="M407,262.6c-10,1.5-19.8,3.4-29.2,5.5c-19.3,0.2-37.8,1.6-54.5,6.4c-14.7,4.7-40.4,3.5-55,12.9
					c1.6,0.3,3.1,0.4,4.5,0.4c-2.2,0.8-4.2,1.7-6.1,2.8c-24.2,2-48,3.3-72.8,3.3c-3.7,0-6.4,1.8-10.1,1.8c-3.7,0.1-7.4,0.2-11,0.3
					c0,0.1,0,0.3,0.1,0.4c-15.1,0.7-30,1.9-45.6,3.8c-7.3,0.6-14.7,0-22,0c-2.8,0-2.8-2.3-4.6-2.9c-7.3-2.9-12.8-5.3-21.1-6.5
					c0,0,0-1.2,0-1.8c-1.3,0.2-2.4,0.2-3.3,0c3.9-6.6,14-8.9,3.4-13.5c0,0,0,0,0,0c0.6-0.2,1.1-0.4,1.6-0.6c0.1,0,0.1,0,0.2,0
					c0,0,0,0,0-0.1c2.5-1,4-2.1,5.5-4c-1.6,0-3.2,0-4.8,0c0.3-0.8,0.5-1.6,0.3-2.5c0.1-0.2,0.3-0.3,0.4-0.5c0.7,0,1.3,0,1.3,0
					c0.2-0.5,0.4-0.9,0.5-1.4c4.2-2.5,10.8-3.8,9.6-6.3c-1-1.3-4.1-0.2-7.5,0.6c-0.2-0.2-0.5-0.4-0.7-0.6c4.6-0.6,0-4.1,2.8-4.7
					c3.7,0,7.3-0.6,11-0.6c14.9,0,27.5-0.6,42.2-2.3c0.6-0.1,1.3-0.1,1.9-0.2c7.1-0.7,13.8-0.9,20.8-0.4c-0.4,0.4-0.9,0.8-1.4,1.1
					c5.6,0.4,11.2,0.5,16.8-0.4c13.8-2.3,27.5-4.7,42.2-5.3c15.4-0.5,30.2-1.7,45.8-3.7c-6.4,1.3-12.8,2.5-19.3,2.9
					c-2.9-0.1-5.9-0.1-8.7,0c2.9,0.2,5.8,0.1,8.7,0c11.3,0.2,22.9,0.9,31.6-4.6c0.9,0.5,0.9,1.1,1.9,1.1c6.4,0,12.8,0.6,18.3-1.8
					c0-0.6,2.8-0.6,1.8-1.8c5.5-0.6,11.9-0.6,17.4-1.8c2.4-0.4,4.8-1.5,7.1-2.9c19.7-3.1,39.2-6.3,60.4-9.3
					c5.3-0.6,11.4-0.6,16.7-0.6c-7.9,2-15.9,3.6-24.2,5c-8-0.4-15.6-0.4-21.9,2.6c-1.5,0.6-2.9,1.1-4.4,1.6
					c8.9-1.3,17.6-2.6,26.3-4.2c4.7,0.3,9.5,0.7,14.3,0.7c-0.1,0-0.2,0.1-0.3,0.1c-3.7,0.8-7.4,1.5-11.2,2.1
					c-7.1-0.4-13.9-0.4-19.7,1.7c-0.7,0.3-1.5,0.6-2.1,0.9c-1.5,0.6-2.9,1.1-4.4,1.6c5.5-0.8,10.9-1.6,16.3-2.5
					c3.3-0.5,6.7-1.1,10-1.7c2.1,0.1,4.2,0.3,6.3,0.4c-0.2,0.1-0.5,0.3-0.7,0.5c-1.8,0.6-7,7.5-4.2,9.2c14.1-0.1,33.9-2.9,33.9-2.3
					c0.9,2.3-23.3,5.4-22.4,6c1.4,0.3,2.7,0.5,4.1,0.7c-1.3,0.5-2.5,1-3.7,1.5c-2.7,0.6-6.4,0-8.3,1.2c-6.4,3.5-13.8,2.3-21.1,4.7
					c-4.6,1.8-10.1,4.1-15.6,6.5c0,1.2-2.8,0.6-1.8,1.8c-5.2,0-11.2,0-13.4,3.4c-0.1,0-0.3,0.1-0.4,0.1c-0.4,0-0.9,0.2-1.4,0.5
					c-8.6-0.6-14.6,2.7-22.4,4.9c-2.7,0.3-5.4,0.5-8.2,0.5c1.8,0,4.6,0.6,6.4,0c0.6-0.2,1.2-0.3,1.8-0.5c7-0.8,13.6-2.3,20.2-3.6
					c0.5-0.3,1.4-0.9,2.2-1.3c0.5,0,1,0.1,1.4,0.1c0.1-0.2,0.2-0.5,0.4-0.7c6.3-1.7,13.5-2.3,18.9-4c10.2-2,21-1,31.4-0.7
					c-5.2,1-10.3,2-15.3,3.2c6.3-1,12.2-2,17.9-3.1c0.9,0,1.8,0,2.6,0h5.5c-1.7-0.3-3.4-0.5-5.1-0.6c3.4-0.7,6.8-1.4,10.1-2.2
					c18.4-2.7,37.4-4.2,56-3.3c-0.4,0.7-0.8,1.4-1.2,2.1c-9,0.4-17.9,0.4-25.3,3.5c5.2,0,8.8-1,13.8-1.1c0,0.3,0,0.8-0.4,1
					c3.2-0.7,6.9-1.3,10.6-1.5c-1.2,1.5-2.5,3-3.8,4.5c-1.8,1.2-4.6,1.2-7.3,1.8c-11.9,1-23.1,0.7-34.9,2.1
					c-10.4-0.2-20.9-0.4-31.1-0.3C388.6,266.4,397.9,264.7,407,262.6z M99.2,278c0.9-0.2,1.9-0.5,2.9-0.8c-0.2-0.1-0.3-0.3-0.4-0.4
					C100.8,276.7,99.9,277.3,99.2,278z M120.7,278.5c-6.3-1-14.6,0.3-22.6,1.2c0,0.2-0.1,0.3-0.1,0.5
					C104.7,280.8,113,279.3,120.7,278.5z M145.8,290.7c0-0.1-0.1-0.1-0.2-0.2c0,0.1,0,0.2,0,0.3
					C145.7,290.8,145.8,290.7,145.8,290.7z M257.6,272c-7.3,2.9-16.5,2.9-25.7,4.1c-2.8,0-5.5,2.3-9.2,2.3c-4.6,0.6-7.3,1.8-11,2.3
					l2.8,1.2c-6.4-0.6-10.1,2.9-16.5,1.8c0,0.6-0.9,1.8-1.8,1.8c-4.6,0.6-9.2-0.6-12.8,0.6c-4.6,0.6-9.2,0.6-12.8,1.8
					c-0.9,0-2.7,1.8-4.6,2.4c-2.2,0.2-4.5,0.4-6.7,0.5c0.1,0.2,0.2,0.3,0.3,0.5c1.8,0,3.7,0,5.5-0.4c5.5-1.2,11.9-2.4,17.4-2.9
					c13.8-1.2,26.6-3.5,39.4-5.9c2.7-0.6,5.5-1.8,8.3-2.3c8.3-2.3,18.4-1.8,23.8-5.9C254.8,273.2,256.7,273.2,257.6,272z
					 M267.9,246.6c-9.7,2.5-20.4,3.6-29.5,3.1c-7.3,0-28.4,3.5-24.8,10.6C222.7,247.5,274.2,260,267.9,246.6z M344.4,235.8
					c-3.8,0.9-7.6,1.8-11.9,1.8C336.4,236.9,340.4,236.4,344.4,235.8z M305.3,259.7c11.9-4.1,24.8-4.7,36.7-7
					c9.2-1.8,19.3,1.2,27.5-2.9c0-0.6,0-1.2,0-1.8l-0.9,0.6c-3.2-0.3-5.8-1.3-8.5-1.8c0.2-0.1,0.3-0.1,0.5-0.2
					c-0.3,0-0.5,0.1-0.8,0.1c-1.8-0.3-3.7-0.4-5.8,0.1c-1,0.3-2,0.6-3,0.8c-11.5,1-23.3,1.9-33.7,5.6c-6.4,1.8-11.9,4.7-18.3,6.5
					C300.7,259.7,303.5,260.3,305.3,259.7z"/>
				<path class="st2" d="M390.1,261.2c4-0.7,8-1.4,12-2c3.1-0.7,6.2-1.5,9.3-2.3c14.7-3.1,31.9-2.1,47.7-3.5c0.5-1.7,0.5-3.5,0-5.3
					c-17.2-1.9-34.4,1.2-51.5,0.3c-0.1,0.1-0.3,0.1-0.4,0.2c-7.3,3.5-19.3,2.3-28.4,5.3c-9.2,3.5-18.3,4.7-27.5,7.6
					C364.4,261.5,377,260.2,390.1,261.2z"/>
				<path class="st2" d="M283.1,289.1c3.6-0.3,7.2-0.7,10.8-1.1c10.1-1.4,19.1-3.1,28.3-5.3c-6.7,0.3-13.5,0.5-20.4,0.5
					C295,283.9,289.2,286.8,283.1,289.1z"/>
				<path class="st2" d="M329.7,281c-2.5,0.6-5,1.2-7.5,1.8c10-0.5,19.9-1.2,29.8-1.9c16.3-2.4,32.6-4.5,48.9-7.6
					c1.8-0.3,3.7-0.6,5.5-0.8c-30.3-0.7-60.5-1.3-86.2,6.1c-0.5,0.2-1,0.3-1.5,0.4c12.2-0.4,24.3-1.3,36.4-2.2
					C346.7,278,338.2,279.4,329.7,281z"/>
				<path class="st2" d="M386.2,261.9c0.9,0,1.8,0,2.6,0.1c1-0.2,2-0.4,3-0.6c-0.6-0.1-1.2-0.1-1.8-0.2
					C388.8,261.5,387.5,261.7,386.2,261.9z"/>
				<path class="st2" d="M360.1,246.8c-0.1,0-0.2,0-0.3-0.1c-2.9,0.3-5.9,0.6-8.8,0.9c-4.1,1.1-8.4,2-12.8,2.7
					C346.1,249.6,353.9,248.9,360.1,246.8z"/>
				<path class="st2" d="M334.7,232.7c-0.9,0-2.7,0-3.7,0c-0.6,0.4-1.1,0.7-1.7,1.1c0.9,0,1.7,0.1,2.6,0.1L334.7,232.7z"/>
				<path class="st2" d="M280.5,242.2c16.3-2.3,31.5-4.7,46.6-7.1c0.7-0.4,1.5-0.9,2.2-1.3c-10.1-0.4-20.2,0.4-29.5,3.6
					c-1.8,0.6-4.6,2.3-6.4,2.3c-8.7,0.6-17,2.4-25.2,4.1c3.9-0.5,7.9-1,12-1.6C280.3,242.2,280.4,242.2,280.5,242.2z"/>
			</g>
		</g>
	</g>
</g>
<g class="st0">
	<line class="st1" x1="100.1" y1="301.8" x2="500" y2="301.8"/>
	<g>
		<g>
			<g>
				<path class="st2" d="M107.2,317.6c-0.9,0-1.7,0-1.7,0c0,0.2,0,0.4,0,0.6C106.2,318,106.7,317.8,107.2,317.6z"/>
				<path class="st2" d="M108.8,310.5c-0.2,0-0.3,0-0.5,0c0.1,0.2,0.1,0.3,0.1,0.5C108.6,310.8,108.7,310.7,108.8,310.5z"/>
				<path class="st2" d="M105.6,318.2c0.1,2.1,0.8,4.3,0,6.4c-0.9,0-2.7,0-3.7,0c-0.9,1.2,0,2.3,0,3.5c-0.9,0-1.8,0-1.8,0.6
					c-0.6,1.5,0.4,2.6,2.2,2.9C106.2,325.1,116.2,322.7,105.6,318.2z"/>
				<path class="st2" d="M112.9,313.5c-1.6,0-3.2,0-4.8,0c-0.5,1.3-1.2,2.7-0.7,4C109.9,316.5,111.4,315.4,112.9,313.5z"/>
				<path class="st2" d="M486.9,310.9c0-0.4,0.1-0.5,0.9,0C487.5,310.9,487.2,310.9,486.9,310.9c0,0.3,0,0.8-0.4,1
					c3.2-0.7,6.9-1.3,10.6-1.5c0.5-0.6,0.9-1.3,1.3-1.9c-9,0.4-17.9,0.4-25.3,3.5C478.3,312.1,481.9,311,486.9,310.9z"/>
				<path class="st2" d="M499.1,305.1c0.3,0,0.6,0,0.9,0C499.2,304.5,499.1,304.7,499.1,305.1z"/>
				<path class="st2" d="M339.1,318.3c-5.5,0.5-10.4,2.5-15.3,4.5c10.4-1.7,21.1-2.5,29.1-4.7C348.3,318.2,343.7,318.3,339.1,318.3z
					"/>
				<path class="st2" d="M299.4,330.6c6.9,1.1,12.5-0.4,17.9-2.4c-5.5,0.5-10.9,1-16.4,1.5C300.4,330,299.9,330.2,299.4,330.6z"/>
				<path class="st2" d="M307,326.9c6.3,0,11.6-2,16.8-4.1C317.9,323.8,312.1,325,307,326.9z"/>
				<path class="st2" d="M431.2,273c4.1-1.7,6.6-2.4,8.1-2.6c0.6-0.8,1.5-1.8,2.6-3.1c-0.2,0-0.5,0-0.7,0c-4.3,1.1-8.6,2-13,2.9
					c-1.8,0.7-3.5,1.5-4.9,2.5C425.9,272.8,428.6,273,431.2,273z"/>
				<path class="st2" d="M439.3,270.3C433.9,277.4,444.8,269.6,439.3,270.3L439.3,270.3z"/>
				<path class="st2" d="M412.6,307.2c-0.2,0-0.4,0-0.6,0c-0.6,0.1-1.2,0.3-1.8,0.4C411,307.5,411.8,307.3,412.6,307.2z"/>
				<path class="st2" d="M361.5,290.6c3.6-0.2,7.3-0.7,10.8-1.2c-7.4,0.6-14.8,1.2-20.9,3c0.9,0,1.8,0.6,2.8,0.6
					C356,291.8,358.7,290.6,361.5,290.6z"/>
				<path class="st2" d="M441.2,301.7c-10,1.5-19.8,3.4-29.2,5.5c-19.3,0.2-37.8,1.6-54.5,6.4c-14.7,4.7-40.4,3.5-55,12.9
					c1.6,0.3,3.1,0.4,4.5,0.4c-2.2,0.8-4.2,1.7-6.1,2.8c-24.2,2-48,3.3-72.8,3.3c-3.7,0-6.4,1.8-10.1,1.8c-3.7,0.1-7.4,0.2-11,0.3
					c0,0.1,0,0.3,0.1,0.4c-15.1,0.7-30,1.9-45.6,3.8c-7.3,0.6-14.7,0-22,0c-2.8,0-2.8-2.3-4.6-2.9c-7.3-2.9-12.8-5.3-21.1-6.5
					c0,0,0-1.2,0-1.8c-1.3,0.2-2.4,0.2-3.3,0c3.9-6.6,14-8.9,3.4-13.5c0,0,0,0,0,0c0.6-0.2,1.1-0.4,1.6-0.6c0.1,0,0.1,0,0.2,0
					c0,0,0,0,0-0.1c2.5-1,4-2.1,5.5-4c-1.6,0-3.2,0-4.8,0c0.3-0.8,0.5-1.6,0.3-2.5c0.1-0.2,0.3-0.3,0.4-0.5c0.7,0,1.3,0,1.3,0
					c0.2-0.5,0.4-0.9,0.5-1.4c4.2-2.5,10.8-3.8,9.6-6.3c-1-1.3-4.1-0.2-7.5,0.6c-0.2-0.2-0.5-0.4-0.7-0.6c4.6-0.6,0-4.1,2.8-4.7
					c3.7,0,7.3-0.6,11-0.6c14.9,0,27.5-0.6,42.2-2.3c0.6-0.1,1.3-0.1,1.9-0.2c7.1-0.7,13.8-0.9,20.8-0.4c-0.4,0.4-0.9,0.8-1.4,1.1
					c5.6,0.4,11.2,0.5,16.8-0.4c13.8-2.3,27.5-4.7,42.2-5.3c15.4-0.5,30.2-1.7,45.8-3.7c-6.4,1.3-12.8,2.5-19.3,2.9
					c-2.9-0.1-5.9-0.1-8.7,0c2.9,0.2,5.8,0.1,8.7,0c11.3,0.2,22.9,0.9,31.6-4.6c0.9,0.5,0.9,1.1,1.9,1.1c6.4,0,12.8,0.6,18.3-1.8
					c0-0.6,2.8-0.6,1.8-1.8c5.5-0.6,11.9-0.6,17.4-1.8c2.4-0.4,4.8-1.5,7.1-2.9c19.7-3.1,39.2-6.3,60.4-9.3
					c5.3-0.6,11.4-0.6,16.7-0.6c-7.9,2-15.9,3.6-24.2,5c-8-0.4-15.6-0.4-21.9,2.6c-1.5,0.6-2.9,1.1-4.4,1.6
					c8.9-1.3,17.6-2.6,26.3-4.2c4.7,0.3,9.5,0.7,14.3,0.7c-0.1,0-0.2,0.1-0.3,0.1c-3.7,0.8-7.4,1.5-11.2,2.1
					c-7.1-0.4-13.9-0.4-19.7,1.7c-0.7,0.3-1.5,0.6-2.1,0.9c-1.5,0.6-2.9,1.1-4.4,1.6c5.5-0.8,10.9-1.6,16.3-2.5
					c3.3-0.5,6.7-1.1,10-1.7c2.1,0.1,4.2,0.3,6.3,0.4c-0.2,0.1-0.5,0.3-0.7,0.5c-1.8,0.6-7,7.5-4.2,9.2c14.1-0.1,33.9-2.9,33.9-2.3
					c0.9,2.3-23.3,5.4-22.4,6c1.4,0.3,2.7,0.5,4.1,0.7c-1.3,0.5-2.5,1-3.7,1.5c-2.7,0.6-6.4,0-8.3,1.2c-6.4,3.5-13.8,2.3-21.1,4.7
					c-4.6,1.8-10.1,4.1-15.6,6.5c0,1.2-2.8,0.6-1.8,1.8c-5.2,0-11.2,0-13.4,3.4c-0.1,0-0.3,0.1-0.4,0.1c-0.4,0-0.9,0.2-1.4,0.5
					c-8.6-0.6-14.6,2.7-22.4,4.9c-2.7,0.3-5.4,0.5-8.2,0.5c1.8,0,4.6,0.6,6.4,0c0.6-0.2,1.2-0.3,1.8-0.5c7-0.8,13.6-2.3,20.2-3.6
					c0.5-0.3,1.4-0.9,2.2-1.3c0.5,0,1,0.1,1.4,0.1c0.1-0.2,0.2-0.5,0.4-0.7c6.3-1.7,13.5-2.3,18.9-4c10.2-2,21-1,31.4-0.7
					c-5.2,1-10.3,2-15.3,3.2c6.3-1,12.2-2,17.9-3.1c0.9,0,1.8,0,2.6,0h5.5c-1.7-0.3-3.4-0.5-5.1-0.6c3.4-0.7,6.8-1.4,10.1-2.2
					c18.4-2.7,37.4-4.2,56-3.3c-0.4,0.7-0.8,1.4-1.2,2.1c-9,0.4-17.9,0.4-25.3,3.5c5.2,0,8.8-1,13.8-1.1c0,0.3,0,0.8-0.4,1
					c3.2-0.7,6.9-1.3,10.6-1.5c-1.2,1.5-2.5,3-3.8,4.5c-1.8,1.2-4.6,1.2-7.3,1.8c-11.9,1-23.1,0.7-34.9,2.1
					c-10.4-0.2-20.9-0.4-31.1-0.3C422.7,305.5,432.1,303.9,441.2,301.7z M133.4,317.1c0.9-0.2,1.9-0.5,2.9-0.8
					c-0.2-0.1-0.3-0.3-0.4-0.4C135,315.8,134.1,316.4,133.4,317.1z M154.9,317.6c-6.3-1-14.6,0.3-22.6,1.2c0,0.2-0.1,0.3-0.1,0.5
					C138.9,319.9,147.2,318.4,154.9,317.6z M180,329.8c0-0.1-0.1-0.1-0.2-0.2c0,0.1,0,0.2,0,0.3C179.9,329.9,180,329.8,180,329.8z
					 M291.8,311.1c-7.3,2.9-16.5,2.9-25.7,4.1c-2.8,0-5.5,2.3-9.2,2.3c-4.6,0.6-7.3,1.8-11,2.3l2.8,1.2c-6.4-0.6-10.1,2.9-16.5,1.8
					c0,0.6-0.9,1.8-1.8,1.8c-4.6,0.6-9.2-0.6-12.8,0.6c-4.6,0.6-9.2,0.6-12.8,1.8c-0.9,0-2.7,1.8-4.6,2.4c-2.2,0.2-4.5,0.4-6.7,0.5
					c0.1,0.2,0.2,0.3,0.3,0.5c1.8,0,3.7,0,5.5-0.4c5.5-1.2,11.9-2.4,17.4-2.9c13.8-1.2,26.6-3.5,39.4-5.9c2.7-0.6,5.5-1.8,8.3-2.3
					c8.3-2.3,18.4-1.8,23.8-5.9C289,312.3,290.9,312.3,291.8,311.1z M302,285.7c-9.7,2.5-20.4,3.6-29.5,3.1
					c-7.3,0-28.4,3.5-24.8,10.6C256.8,286.6,308.4,299.1,302,285.7z M378.6,274.9c-3.8,0.9-7.6,1.8-11.9,1.8
					C370.6,276,374.6,275.5,378.6,274.9z M339.5,298.8c11.9-4.1,24.8-4.7,36.7-7c9.2-1.8,19.3,1.2,27.5-2.9c0-0.6,0-1.2,0-1.8
					l-0.9,0.6c-3.2-0.3-5.8-1.3-8.5-1.8c0.2-0.1,0.3-0.1,0.5-0.2c-0.3,0-0.5,0.1-0.8,0.1c-1.8-0.3-3.7-0.4-5.8,0.1
					c-1,0.3-2,0.6-3,0.8c-11.5,1-23.3,1.9-33.7,5.6c-6.4,1.8-11.9,4.7-18.3,6.5C334.9,298.8,337.6,299.4,339.5,298.8z"/>
				<path class="st2" d="M424.3,300.3c4-0.7,8-1.4,12-2c3.1-0.7,6.2-1.5,9.3-2.3c14.7-3.1,31.9-2.1,47.7-3.5c0.5-1.7,0.5-3.5,0-5.3
					c-17.2-1.9-34.4,1.2-51.5,0.3c-0.1,0.1-0.3,0.1-0.4,0.2c-7.3,3.5-19.3,2.3-28.4,5.3c-9.2,3.5-18.3,4.7-27.5,7.6
					C398.6,300.6,411.2,299.3,424.3,300.3z"/>
				<path class="st2" d="M317.3,328.2c3.6-0.3,7.2-0.7,10.8-1.1c10.1-1.4,19.1-3.1,28.3-5.3c-6.7,0.3-13.5,0.5-20.4,0.5
					C329.2,323,323.4,325.9,317.3,328.2z"/>
				<path class="st2" d="M363.9,320.1c-2.5,0.6-5,1.2-7.5,1.8c10-0.5,19.9-1.2,29.8-1.9c16.3-2.4,32.6-4.5,48.9-7.6
					c1.8-0.3,3.7-0.6,5.5-0.8c-30.3-0.7-60.5-1.3-86.2,6.1c-0.5,0.2-1,0.3-1.5,0.4c12.2-0.4,24.3-1.3,36.4-2.2
					C380.8,317.1,372.4,318.5,363.9,320.1z"/>
				<path class="st2" d="M420.4,301c0.9,0,1.8,0,2.6,0.1c1-0.2,2-0.4,3-0.6c-0.6-0.1-1.2-0.1-1.8-0.2
					C423,300.6,421.7,300.8,420.4,301z"/>
				<path class="st2" d="M394.3,285.9c-0.1,0-0.2,0-0.3-0.1c-2.9,0.3-5.9,0.6-8.8,0.9c-4.1,1.1-8.4,2-12.8,2.7
					C380.3,288.7,388.1,288,394.3,285.9z"/>
				<path class="st2" d="M368.8,271.8c-0.9,0-2.7,0-3.7,0c-0.6,0.4-1.1,0.7-1.7,1.1c0.9,0,1.7,0.1,2.6,0.1L368.8,271.8z"/>
				<path class="st2" d="M314.7,281.3c16.3-2.3,31.5-4.7,46.6-7.1c0.7-0.4,1.5-0.9,2.2-1.3c-10.1-0.4-20.2,0.4-29.5,3.6
					c-1.8,0.6-4.6,2.3-6.4,2.3c-8.7,0.6-17,2.4-25.2,4.1c3.9-0.5,7.9-1,12-1.6C314.5,281.3,314.6,281.3,314.7,281.3z"/>
			</g>
		</g>
	</g>
</g>
<g class="st0">
	<line class="st1" x1="100.1" y1="340.9" x2="500" y2="340.9"/>
	<g>
		<g>
			<g>
				<path class="st2" d="M107.2,356.7c-0.9,0-1.7,0-1.7,0c0,0.2,0,0.4,0,0.6C106.2,357.1,106.7,356.9,107.2,356.7z"/>
				<path class="st2" d="M108.8,349.6c-0.2,0-0.3,0-0.5,0c0.1,0.2,0.1,0.3,0.1,0.5C108.6,349.9,108.7,349.8,108.8,349.6z"/>
				<path class="st2" d="M105.6,357.3c0.1,2.1,0.8,4.3,0,6.4c-0.9,0-2.7,0-3.7,0c-0.9,1.2,0,2.3,0,3.5c-0.9,0-1.8,0-1.8,0.6
					c-0.6,1.5,0.4,2.6,2.2,2.9C106.2,364.2,116.2,361.8,105.6,357.3z"/>
				<path class="st2" d="M112.9,352.6c-1.6,0-3.2,0-4.8,0c-0.5,1.3-1.2,2.7-0.7,4C109.9,355.6,111.4,354.5,112.9,352.6z"/>
				<path class="st2" d="M486.9,350c0-0.4,0.1-0.5,0.9,0C487.5,350,487.2,350,486.9,350c0,0.3,0,0.8-0.4,1c3.2-0.7,6.9-1.3,10.6-1.5
					c0.5-0.6,0.9-1.3,1.3-1.9c-9,0.4-17.9,0.4-25.3,3.5C478.3,351.2,481.9,350.1,486.9,350z"/>
				<path class="st2" d="M499.1,344.2c0.3,0,0.6,0,0.9,0C499.2,343.6,499.1,343.8,499.1,344.2z"/>
				<path class="st2" d="M339.1,357.4c-5.5,0.5-10.4,2.5-15.3,4.5c10.4-1.7,21.1-2.5,29.1-4.7C348.3,357.3,343.7,357.4,339.1,357.4z
					"/>
				<path class="st2" d="M299.4,369.7c6.9,1.1,12.5-0.4,17.9-2.4c-5.5,0.5-10.9,1-16.4,1.5C300.4,369.1,299.9,369.3,299.4,369.7z"/>
				<path class="st2" d="M307,366c6.3,0,11.6-2,16.8-4.1C317.9,362.9,312.1,364.1,307,366z"/>
				<path class="st2" d="M431.2,312.1c4.1-1.7,6.6-2.4,8.1-2.6c0.6-0.8,1.5-1.8,2.6-3.1c-0.2,0-0.5,0-0.7,0c-4.3,1.1-8.6,2-13,2.9
					c-1.8,0.7-3.5,1.5-4.9,2.5C425.9,311.9,428.6,312.1,431.2,312.1z"/>
				<path class="st2" d="M439.3,309.4C433.9,316.5,444.8,308.7,439.3,309.4L439.3,309.4z"/>
				<path class="st2" d="M412.6,346.3c-0.2,0-0.4,0-0.6,0c-0.6,0.1-1.2,0.3-1.8,0.4C411,346.6,411.8,346.4,412.6,346.3z"/>
				<path class="st2" d="M361.5,329.7c3.6-0.2,7.3-0.7,10.8-1.2c-7.4,0.6-14.8,1.2-20.9,3c0.9,0,1.8,0.6,2.8,0.6
					C356,330.9,358.7,329.7,361.5,329.7z"/>
				<path class="st2" d="M441.2,340.8c-10,1.5-19.8,3.4-29.2,5.5c-19.3,0.2-37.8,1.6-54.5,6.4c-14.7,4.7-40.4,3.5-55,12.9
					c1.6,0.3,3.1,0.4,4.5,0.4c-2.2,0.8-4.2,1.7-6.1,2.8c-24.2,2-48,3.3-72.8,3.3c-3.7,0-6.4,1.8-10.1,1.8c-3.7,0.1-7.4,0.2-11,0.3
					c0,0.1,0,0.3,0.1,0.4c-15.1,0.7-30,1.9-45.6,3.8c-7.3,0.6-14.7,0-22,0c-2.8,0-2.8-2.3-4.6-2.9c-7.3-2.9-12.8-5.3-21.1-6.5
					c0,0,0-1.2,0-1.8c-1.3,0.2-2.4,0.2-3.3,0c3.9-6.6,14-8.9,3.4-13.5c0,0,0,0,0,0c0.6-0.2,1.1-0.4,1.6-0.6c0.1,0,0.1,0,0.2,0
					c0,0,0,0,0-0.1c2.5-1,4-2.1,5.5-4c-1.6,0-3.2,0-4.8,0c0.3-0.8,0.5-1.6,0.3-2.5c0.1-0.2,0.3-0.3,0.4-0.5c0.7,0,1.3,0,1.3,0
					c0.2-0.5,0.4-0.9,0.5-1.4c4.2-2.5,10.8-3.8,9.6-6.3c-1-1.3-4.1-0.2-7.5,0.6c-0.2-0.2-0.5-0.4-0.7-0.6c4.6-0.6,0-4.1,2.8-4.7
					c3.7,0,7.3-0.6,11-0.6c14.9,0,27.5-0.6,42.2-2.3c0.6-0.1,1.3-0.1,1.9-0.2c7.1-0.7,13.8-0.9,20.8-0.4c-0.4,0.4-0.9,0.8-1.4,1.1
					c5.6,0.4,11.2,0.5,16.8-0.4c13.8-2.3,27.5-4.7,42.2-5.3c15.4-0.5,30.2-1.7,45.8-3.7c-6.4,1.3-12.8,2.5-19.3,2.9
					c-2.9-0.1-5.9-0.1-8.7,0c2.9,0.2,5.8,0.1,8.7,0c11.3,0.2,22.9,0.9,31.6-4.6c0.9,0.5,0.9,1.1,1.9,1.1c6.4,0,12.8,0.6,18.3-1.8
					c0-0.6,2.8-0.6,1.8-1.8c5.5-0.6,11.9-0.6,17.4-1.8c2.4-0.4,4.8-1.5,7.1-2.9c19.7-3.1,39.2-6.3,60.4-9.3
					c5.3-0.6,11.4-0.6,16.7-0.6c-7.9,2-15.9,3.6-24.2,5c-8-0.4-15.6-0.4-21.9,2.6c-1.5,0.6-2.9,1.1-4.4,1.6
					c8.9-1.3,17.6-2.6,26.3-4.2c4.7,0.3,9.5,0.7,14.3,0.7c-0.1,0-0.2,0.1-0.3,0.1c-3.7,0.8-7.4,1.5-11.2,2.1
					c-7.1-0.4-13.9-0.4-19.7,1.7c-0.7,0.3-1.5,0.6-2.1,0.9c-1.5,0.6-2.9,1.1-4.4,1.6c5.5-0.8,10.9-1.6,16.3-2.5
					c3.3-0.5,6.7-1.1,10-1.7c2.1,0.1,4.2,0.3,6.3,0.4c-0.2,0.1-0.5,0.3-0.7,0.5c-1.8,0.6-7,7.5-4.2,9.2c14.1-0.1,33.9-2.9,33.9-2.3
					c0.9,2.3-23.3,5.4-22.4,6c1.4,0.3,2.7,0.5,4.1,0.7c-1.3,0.5-2.5,1-3.7,1.5c-2.7,0.6-6.4,0-8.3,1.2c-6.4,3.5-13.8,2.3-21.1,4.7
					c-4.6,1.8-10.1,4.1-15.6,6.5c0,1.2-2.8,0.6-1.8,1.8c-5.2,0-11.2,0-13.4,3.4c-0.1,0-0.3,0.1-0.4,0.1c-0.4,0-0.9,0.2-1.4,0.5
					c-8.6-0.6-14.6,2.7-22.4,4.9c-2.7,0.3-5.4,0.5-8.2,0.5c1.8,0,4.6,0.6,6.4,0c0.6-0.2,1.2-0.3,1.8-0.5c7-0.8,13.6-2.3,20.2-3.6
					c0.5-0.3,1.4-0.9,2.2-1.3c0.5,0,1,0.1,1.4,0.1c0.1-0.2,0.2-0.5,0.4-0.7c6.3-1.7,13.5-2.3,18.9-4c10.2-2,21-1,31.4-0.7
					c-5.2,1-10.3,2-15.3,3.2c6.3-1,12.2-2,17.9-3.1c0.9,0,1.8,0,2.6,0h5.5c-1.7-0.3-3.4-0.5-5.1-0.6c3.4-0.7,6.8-1.4,10.1-2.2
					c18.4-2.7,37.4-4.2,56-3.3c-0.4,0.7-0.8,1.4-1.2,2.1c-9,0.4-17.9,0.4-25.3,3.5c5.2,0,8.8-1,13.8-1.1c0,0.3,0,0.8-0.4,1
					c3.2-0.7,6.9-1.3,10.6-1.5c-1.2,1.5-2.5,3-3.8,4.5c-1.8,1.2-4.6,1.2-7.3,1.8c-11.9,1-23.1,0.7-34.9,2.1
					c-10.4-0.2-20.9-0.4-31.1-0.3C422.7,344.6,432.1,343,441.2,340.8z M133.4,356.2c0.9-0.2,1.9-0.5,2.9-0.8
					c-0.2-0.1-0.3-0.3-0.4-0.4C135,354.9,134.1,355.5,133.4,356.2z M154.9,356.7c-6.3-1-14.6,0.3-22.6,1.2c0,0.2-0.1,0.3-0.1,0.5
					C138.9,359,147.2,357.5,154.9,356.7z M180,368.9c0-0.1-0.1-0.1-0.2-0.2c0,0.1,0,0.2,0,0.3C179.9,369,180,368.9,180,368.9z
					 M291.8,350.2c-7.3,2.9-16.5,2.9-25.7,4.1c-2.8,0-5.5,2.3-9.2,2.3c-4.6,0.6-7.3,1.8-11,2.3l2.8,1.2c-6.4-0.6-10.1,2.9-16.5,1.8
					c0,0.6-0.9,1.8-1.8,1.8c-4.6,0.6-9.2-0.6-12.8,0.6c-4.6,0.6-9.2,0.6-12.8,1.8c-0.9,0-2.7,1.8-4.6,2.4c-2.2,0.2-4.5,0.4-6.7,0.5
					c0.1,0.2,0.2,0.3,0.3,0.5c1.8,0,3.7,0,5.5-0.4c5.5-1.2,11.9-2.4,17.4-2.9c13.8-1.2,26.6-3.5,39.4-5.9c2.7-0.6,5.5-1.8,8.3-2.3
					c8.3-2.3,18.4-1.8,23.8-5.9C289,351.4,290.9,351.4,291.8,350.2z M302,324.8c-9.7,2.5-20.4,3.6-29.5,3.1
					c-7.3,0-28.4,3.5-24.8,10.6C256.8,325.7,308.4,338.2,302,324.8z M378.6,314c-3.8,0.9-7.6,1.8-11.9,1.8
					C370.6,315.1,374.6,314.6,378.6,314z M339.5,337.9c11.9-4.1,24.8-4.7,36.7-7c9.2-1.8,19.3,1.2,27.5-2.9c0-0.6,0-1.2,0-1.8
					l-0.9,0.6c-3.2-0.3-5.8-1.3-8.5-1.8c0.2-0.1,0.3-0.1,0.5-0.2c-0.3,0-0.5,0.1-0.8,0.1c-1.8-0.3-3.7-0.4-5.8,0.1
					c-1,0.3-2,0.6-3,0.8c-11.5,1-23.3,1.9-33.7,5.6c-6.4,1.8-11.9,4.7-18.3,6.5C334.9,337.9,337.6,338.5,339.5,337.9z"/>
				<path class="st2" d="M424.3,339.5c4-0.7,8-1.4,12-2c3.1-0.7,6.2-1.5,9.3-2.3c14.7-3.1,31.9-2.1,47.7-3.5c0.5-1.7,0.5-3.5,0-5.3
					c-17.2-1.9-34.4,1.2-51.5,0.3c-0.1,0.1-0.3,0.1-0.4,0.2c-7.3,3.5-19.3,2.3-28.4,5.3c-9.2,3.5-18.3,4.7-27.5,7.6
					C398.6,339.7,411.2,338.4,424.3,339.5z"/>
				<path class="st2" d="M317.3,367.3c3.6-0.3,7.2-0.7,10.8-1.1c10.1-1.4,19.1-3.1,28.3-5.3c-6.7,0.3-13.5,0.5-20.4,0.5
					C329.2,362.1,323.4,365,317.3,367.3z"/>
				<path class="st2" d="M363.9,359.2c-2.5,0.6-5,1.2-7.5,1.8c10-0.5,19.9-1.2,29.8-1.9c16.3-2.4,32.6-4.5,48.9-7.6
					c1.8-0.3,3.7-0.6,5.5-0.8c-30.3-0.7-60.5-1.3-86.2,6.1c-0.5,0.2-1,0.3-1.5,0.4c12.2-0.4,24.3-1.3,36.4-2.2
					C380.8,356.2,372.4,357.6,363.9,359.2z"/>
				<path class="st2" d="M420.4,340.1c0.9,0,1.8,0,2.6,0.1c1-0.2,2-0.4,3-0.6c-0.6-0.1-1.2-0.1-1.8-0.2
					C423,339.7,421.7,339.9,420.4,340.1z"/>
				<path class="st2" d="M394.3,325c-0.1,0-0.2,0-0.3-0.1c-2.9,0.3-5.9,0.6-8.8,0.9c-4.1,1.1-8.4,2-12.8,2.7
					C380.3,327.8,388.1,327.1,394.3,325z"/>
				<path class="st2" d="M368.8,310.9c-0.9,0-2.7,0-3.7,0c-0.6,0.4-1.1,0.7-1.7,1.1c0.9,0,1.7,0.1,2.6,0.1L368.8,310.9z"/>
				<path class="st2" d="M314.7,320.4c16.3-2.3,31.5-4.7,46.6-7.1c0.7-0.4,1.5-0.9,2.2-1.3c-10.1-0.4-20.2,0.4-29.5,3.6
					c-1.8,0.6-4.6,2.3-6.4,2.3c-8.7,0.6-17,2.4-25.2,4.1c3.9-0.5,7.9-1,12-1.6C314.5,320.4,314.6,320.4,314.7,320.4z"/>
			</g>
		</g>
	</g>
</g>
<g class="st0">
	<line class="st1" x1="93.6" y1="380" x2="493.5" y2="380"/>
	<g>
		<g>
			<g>
				<path class="st2" d="M100.7,395.8c-0.9,0-1.7,0-1.7,0c0,0.2,0,0.4,0,0.6C99.7,396.2,100.2,396,100.7,395.8z"/>
				<path class="st2" d="M102.3,388.7c-0.2,0-0.3,0-0.5,0c0.1,0.2,0.1,0.3,0.1,0.5C102,389,102.2,388.9,102.3,388.7z"/>
				<path class="st2" d="M99.1,396.4c0.1,2.1,0.8,4.3,0,6.4c-0.9,0-2.7,0-3.7,0c-0.9,1.2,0,2.3,0,3.5c-0.9,0-1.8,0-1.8,0.6
					c-0.6,1.5,0.4,2.6,2.2,2.9C99.7,403.3,109.7,400.9,99.1,396.4z"/>
				<path class="st2" d="M106.4,391.7c-1.6,0-3.2,0-4.8,0c-0.5,1.3-1.2,2.7-0.7,4C103.4,394.7,104.9,393.6,106.4,391.7z"/>
				<path class="st2" d="M480.3,389.1c0-0.4,0.1-0.5,0.9,0C480.9,389.1,480.6,389.1,480.3,389.1c0,0.3,0,0.8-0.4,1
					c3.2-0.7,6.9-1.3,10.6-1.5c0.5-0.6,0.9-1.3,1.3-1.9c-9,0.4-17.9,0.4-25.3,3.5C471.8,390.3,475.3,389.2,480.3,389.1z"/>
				<path class="st2" d="M492.6,383.3c0.3,0,0.6,0,0.9,0C492.7,382.7,492.6,382.9,492.6,383.3z"/>
				<path class="st2" d="M332.6,396.5c-5.5,0.5-10.4,2.5-15.3,4.5c10.4-1.7,21.1-2.5,29.1-4.7C341.8,396.4,337.2,396.5,332.6,396.5z
					"/>
				<path class="st2" d="M292.9,408.8c6.9,1.1,12.5-0.4,17.9-2.4c-5.5,0.5-10.9,1-16.4,1.5C293.9,408.2,293.3,408.4,292.9,408.8z"/>
				<path class="st2" d="M300.5,405.1c6.3,0,11.6-2,16.8-4.1C311.4,402,305.6,403.2,300.5,405.1z"/>
				<path class="st2" d="M424.7,351.2c4.1-1.7,6.6-2.4,8.1-2.6c0.6-0.8,1.5-1.8,2.6-3.1c-0.2,0-0.5,0-0.7,0c-4.3,1.1-8.6,2-13,2.9
					c-1.8,0.7-3.5,1.5-4.9,2.5C419.4,351,422.1,351.2,424.7,351.2z"/>
				<path class="st2" d="M432.8,348.5C427.4,355.6,438.3,347.8,432.8,348.5L432.8,348.5z"/>
				<path class="st2" d="M406.1,385.4c-0.2,0-0.4,0-0.6,0c-0.6,0.1-1.2,0.3-1.8,0.4C404.4,385.7,405.2,385.5,406.1,385.4z"/>
				<path class="st2" d="M355,368.8c3.6-0.2,7.3-0.7,10.8-1.2c-7.4,0.6-14.8,1.2-20.9,3c0.9,0,1.8,0.6,2.8,0.6
					C349.5,370,352.2,368.8,355,368.8z"/>
				<path class="st2" d="M434.7,379.9c-10,1.5-19.8,3.4-29.2,5.5c-19.3,0.2-37.8,1.6-54.5,6.4c-14.7,4.7-40.4,3.5-55,12.9
					c1.6,0.3,3.1,0.4,4.5,0.4c-2.2,0.8-4.2,1.7-6.1,2.8c-24.2,2-48,3.3-72.8,3.3c-3.7,0-6.4,1.8-10.1,1.8c-3.7,0.1-7.4,0.2-11,0.3
					c0,0.1,0,0.3,0.1,0.4c-15.1,0.7-30,1.9-45.6,3.8c-7.3,0.6-14.7,0-22,0c-2.8,0-2.8-2.3-4.6-2.9c-7.3-2.9-12.8-5.3-21.1-6.5
					c0,0,0-1.2,0-1.8c-1.3,0.2-2.4,0.2-3.3,0c3.9-6.6,14-8.9,3.4-13.5c0,0,0,0,0,0c0.6-0.2,1.1-0.4,1.6-0.6c0.1,0,0.1,0,0.2,0
					c0,0,0,0,0-0.1c2.5-1,4-2.1,5.5-4c-1.6,0-3.2,0-4.8,0c0.3-0.8,0.5-1.6,0.3-2.5c0.1-0.2,0.3-0.3,0.4-0.5c0.7,0,1.3,0,1.3,0
					c0.2-0.5,0.4-0.9,0.5-1.4c4.2-2.5,10.8-3.8,9.6-6.3c-1-1.3-4.1-0.2-7.5,0.6c-0.2-0.2-0.5-0.4-0.7-0.6c4.6-0.6,0-4.1,2.8-4.7
					c3.7,0,7.3-0.6,11-0.6c14.9,0,27.5-0.6,42.2-2.3c0.6-0.1,1.3-0.1,1.9-0.2c7.1-0.7,13.8-0.9,20.8-0.4c-0.4,0.4-0.9,0.8-1.4,1.1
					c5.6,0.4,11.2,0.5,16.8-0.4c13.8-2.3,27.5-4.7,42.2-5.3c15.4-0.5,30.2-1.7,45.8-3.7c-6.4,1.3-12.8,2.5-19.3,2.9
					c-2.9-0.1-5.9-0.1-8.7,0c2.9,0.2,5.8,0.1,8.7,0c11.3,0.2,22.9,0.9,31.6-4.6c0.9,0.5,0.9,1.1,1.9,1.1c6.4,0,12.8,0.6,18.3-1.8
					c0-0.6,2.8-0.6,1.8-1.8c5.5-0.6,11.9-0.6,17.4-1.8c2.4-0.4,4.8-1.5,7.1-2.9c19.7-3.1,39.2-6.3,60.4-9.3
					c5.3-0.6,11.4-0.6,16.7-0.6c-7.9,2-15.9,3.6-24.2,5c-8-0.4-15.6-0.4-21.9,2.6c-1.5,0.6-2.9,1.1-4.4,1.6
					c8.9-1.3,17.6-2.6,26.3-4.2c4.7,0.3,9.5,0.7,14.3,0.7c-0.1,0-0.2,0.1-0.3,0.1c-3.7,0.8-7.4,1.5-11.2,2.1
					c-7.1-0.4-13.9-0.4-19.7,1.7c-0.7,0.3-1.5,0.6-2.1,0.9c-1.5,0.6-2.9,1.1-4.4,1.6c5.5-0.8,10.9-1.6,16.3-2.5
					c3.3-0.5,6.7-1.1,10-1.7c2.1,0.1,4.2,0.3,6.3,0.4c-0.2,0.1-0.5,0.3-0.7,0.5c-1.8,0.6-7,7.5-4.2,9.2c14.1-0.1,33.9-2.9,33.9-2.3
					c0.9,2.3-23.3,5.4-22.4,6c1.4,0.3,2.7,0.5,4.1,0.7c-1.3,0.5-2.5,1-3.7,1.5c-2.7,0.6-6.4,0-8.3,1.2c-6.4,3.5-13.8,2.3-21.1,4.7
					c-4.6,1.8-10.1,4.1-15.6,6.5c0,1.2-2.8,0.6-1.8,1.8c-5.2,0-11.2,0-13.4,3.4c-0.1,0-0.3,0.1-0.4,0.1c-0.4,0-0.9,0.2-1.4,0.5
					c-8.6-0.6-14.6,2.7-22.4,4.9c-2.7,0.3-5.4,0.5-8.2,0.5c1.8,0,4.6,0.6,6.4,0c0.6-0.2,1.2-0.3,1.8-0.5c7-0.8,13.6-2.3,20.2-3.6
					c0.5-0.3,1.4-0.9,2.2-1.3c0.5,0,1,0.1,1.4,0.1c0.1-0.2,0.2-0.5,0.4-0.7c6.3-1.7,13.5-2.3,18.9-4c10.2-2,21-1,31.4-0.7
					c-5.2,1-10.3,2-15.3,3.2c6.3-1,12.2-2,17.9-3.1c0.9,0,1.8,0,2.6,0h5.5c-1.7-0.3-3.4-0.5-5.1-0.6c3.4-0.7,6.8-1.4,10.1-2.2
					c18.4-2.7,37.4-4.2,56-3.3c-0.4,0.7-0.8,1.4-1.2,2.1c-9,0.4-17.9,0.4-25.3,3.5c5.2,0,8.8-1,13.8-1.1c0,0.3,0,0.8-0.4,1
					c3.2-0.7,6.9-1.3,10.6-1.5c-1.2,1.5-2.5,3-3.8,4.5c-1.8,1.2-4.6,1.2-7.3,1.8c-11.9,1-23.1,0.7-34.9,2.1
					c-10.4-0.2-20.9-0.4-31.1-0.3C416.2,383.7,425.6,382.1,434.7,379.9z M126.9,395.3c0.9-0.2,1.9-0.5,2.9-0.8
					c-0.2-0.1-0.3-0.3-0.4-0.4C128.4,394,127.6,394.6,126.9,395.3z M148.3,395.8c-6.3-1-14.6,0.3-22.6,1.2c0,0.2-0.1,0.3-0.1,0.5
					C132.4,398.1,140.7,396.6,148.3,395.8z M173.5,408c0-0.1-0.1-0.1-0.2-0.2c0,0.1,0,0.2,0,0.3C173.4,408.1,173.4,408,173.5,408z
					 M285.3,389.3c-7.3,2.9-16.5,2.9-25.7,4.1c-2.8,0-5.5,2.3-9.2,2.3c-4.6,0.6-7.3,1.8-11,2.3l2.8,1.2c-6.4-0.6-10.1,2.9-16.5,1.8
					c0,0.6-0.9,1.8-1.8,1.8c-4.6,0.6-9.2-0.6-12.8,0.6c-4.6,0.6-9.2,0.6-12.8,1.8c-0.9,0-2.7,1.8-4.6,2.4c-2.2,0.2-4.5,0.4-6.7,0.5
					c0.1,0.2,0.2,0.3,0.3,0.5c1.8,0,3.7,0,5.5-0.4c5.5-1.2,11.9-2.4,17.4-2.9c13.8-1.2,26.6-3.5,39.4-5.9c2.7-0.6,5.5-1.8,8.3-2.3
					c8.3-2.3,18.4-1.8,23.8-5.9C282.5,390.5,284.4,390.5,285.3,389.3z M295.5,363.9c-9.7,2.5-20.4,3.6-29.5,3.1
					c-7.3,0-28.4,3.5-24.8,10.6C250.3,364.8,301.9,377.3,295.5,363.9z M372,353.1c-3.8,0.9-7.6,1.8-11.9,1.8
					C364.1,354.2,368.1,353.7,372,353.1z M333,377c11.9-4.1,24.8-4.7,36.7-7c9.2-1.8,19.3,1.2,27.5-2.9c0-0.6,0-1.2,0-1.8l-0.9,0.6
					c-3.2-0.3-5.8-1.3-8.5-1.8c0.2-0.1,0.3-0.1,0.5-0.2c-0.3,0-0.5,0.1-0.8,0.1c-1.8-0.3-3.7-0.4-5.8,0.1c-1,0.3-2,0.6-3,0.8
					c-11.5,1-23.3,1.9-33.7,5.6c-6.4,1.8-11.9,4.7-18.3,6.5C328.4,377,331.1,377.6,333,377z"/>
				<path class="st2" d="M417.7,378.6c4-0.7,8-1.4,12-2c3.1-0.7,6.2-1.5,9.3-2.3c14.7-3.1,31.9-2.1,47.7-3.5c0.5-1.7,0.5-3.5,0-5.3
					c-17.2-1.9-34.4,1.2-51.5,0.3c-0.1,0.1-0.3,0.1-0.4,0.2c-7.3,3.5-19.3,2.3-28.4,5.3c-9.2,3.5-18.3,4.7-27.5,7.6
					C392.1,378.8,404.7,377.5,417.7,378.6z"/>
				<path class="st2" d="M310.8,406.4c3.6-0.3,7.2-0.7,10.8-1.1c10.1-1.4,19.1-3.1,28.3-5.3c-6.7,0.3-13.5,0.5-20.4,0.5
					C322.7,401.2,316.9,404.1,310.8,406.4z"/>
				<path class="st2" d="M357.4,398.3c-2.5,0.6-5,1.2-7.5,1.8c10-0.5,19.9-1.2,29.8-1.9c16.3-2.4,32.6-4.5,48.9-7.6
					c1.8-0.3,3.7-0.6,5.5-0.8c-30.3-0.7-60.5-1.3-86.2,6.1c-0.5,0.2-1,0.3-1.5,0.4c12.2-0.4,24.3-1.3,36.4-2.2
					C374.3,395.3,365.8,396.7,357.4,398.3z"/>
				<path class="st2" d="M413.9,379.2c0.9,0,1.8,0,2.6,0.1c1-0.2,2-0.4,3-0.6c-0.6-0.1-1.2-0.1-1.8-0.2
					C416.5,378.8,415.2,379,413.9,379.2z"/>
				<path class="st2" d="M387.7,364.1c-0.1,0-0.2,0-0.3-0.1c-2.9,0.3-5.9,0.6-8.8,0.9c-4.1,1.1-8.4,2-12.8,2.7
					C373.7,366.9,381.6,366.2,387.7,364.1z"/>
				<path class="st2" d="M362.3,350c-0.9,0-2.7,0-3.7,0c-0.6,0.4-1.1,0.7-1.7,1.1c0.9,0,1.7,0.1,2.6,0.1L362.3,350z"/>
				<path class="st2" d="M308.2,359.5c16.3-2.3,31.5-4.7,46.6-7.1c0.7-0.4,1.5-0.9,2.2-1.3c-10.1-0.4-20.2,0.4-29.5,3.6
					c-1.8,0.6-4.6,2.3-6.4,2.3c-8.7,0.6-17,2.4-25.2,4.1c3.9-0.5,7.9-1,12-1.6C307.9,359.5,308.1,359.5,308.2,359.5z"/>
			</g>
		</g>
	</g>
</g>
<g class="st0">
	<line class="st1" x1="93.2" y1="419.1" x2="493.2" y2="419.1"/>
	<g>
		<g>
			<g>
				<path class="st2" d="M100.4,434.9c-0.9,0-1.7,0-1.7,0c0,0.2,0,0.4,0,0.6C99.4,435.3,99.9,435.1,100.4,434.9z"/>
				<path class="st2" d="M102,427.8c-0.2,0-0.3,0-0.5,0c0.1,0.2,0.1,0.3,0.1,0.5C101.7,428.1,101.9,428,102,427.8z"/>
				<path class="st2" d="M98.8,435.5c0.1,2.1,0.8,4.3,0,6.4c-0.9,0-2.7,0-3.7,0c-0.9,1.2,0,2.3,0,3.5c-0.9,0-1.8,0-1.8,0.6
					c-0.6,1.5,0.4,2.6,2.2,2.9C99.3,442.4,109.4,440,98.8,435.5z"/>
				<path class="st2" d="M106.1,430.8c-1.6,0-3.2,0-4.8,0c-0.5,1.3-1.2,2.7-0.7,4C103.1,433.8,104.6,432.7,106.1,430.8z"/>
				<path class="st2" d="M480,428.2c0-0.4,0.1-0.5,0.9,0C480.6,428.2,480.3,428.2,480,428.2c0,0.3,0,0.8-0.4,1
					c3.2-0.7,6.9-1.3,10.6-1.5c0.5-0.6,0.9-1.3,1.3-1.9c-9,0.4-17.9,0.4-25.3,3.5C471.5,429.4,475,428.3,480,428.2z"/>
				<path class="st2" d="M492.3,422.4c0.3,0,0.6,0,0.9,0C492.3,421.8,492.3,422,492.3,422.4z"/>
				<path class="st2" d="M332.3,435.6c-5.5,0.5-10.4,2.5-15.3,4.5c10.4-1.7,21.1-2.5,29.1-4.7C341.5,435.5,336.9,435.6,332.3,435.6z
					"/>
				<path class="st2" d="M292.5,447.9c6.9,1.1,12.5-0.4,17.9-2.4c-5.5,0.5-10.9,1-16.4,1.5C293.6,447.3,293,447.5,292.5,447.9z"/>
				<path class="st2" d="M300.1,444.2c6.3,0,11.6-2,16.8-4.1C311.1,441.1,305.3,442.3,300.1,444.2z"/>
				<path class="st2" d="M424.4,390.3c4.1-1.7,6.6-2.4,8.1-2.6c0.6-0.8,1.5-1.8,2.6-3.1c-0.2,0-0.5,0-0.7,0c-4.3,1.1-8.6,2-13,2.9
					c-1.8,0.7-3.5,1.5-4.9,2.5C419.1,390.1,421.7,390.3,424.4,390.3z"/>
				<path class="st2" d="M432.4,387.6C427.1,394.7,438,386.9,432.4,387.6L432.4,387.6z"/>
				<path class="st2" d="M405.7,424.5c-0.2,0-0.4,0-0.6,0c-0.6,0.1-1.2,0.3-1.8,0.4C404.1,424.8,404.9,424.6,405.7,424.5z"/>
				<path class="st2" d="M354.7,407.9c3.6-0.2,7.3-0.7,10.8-1.2c-7.4,0.6-14.8,1.2-20.9,3c0.9,0,1.8,0.6,2.8,0.6
					C349.2,409.1,351.9,407.9,354.7,407.9z"/>
				<path class="st2" d="M434.4,419c-10,1.5-19.8,3.4-29.2,5.5c-19.3,0.2-37.8,1.6-54.5,6.4c-14.7,4.7-40.4,3.5-55,12.9
					c1.6,0.3,3.1,0.4,4.5,0.4c-2.2,0.8-4.2,1.7-6.1,2.8c-24.2,2-48,3.3-72.8,3.3c-3.7,0-6.4,1.8-10.1,1.8c-3.7,0.1-7.4,0.2-11,0.3
					c0,0.1,0,0.3,0.1,0.4c-15.1,0.7-30,1.9-45.6,3.8c-7.3,0.6-14.7,0-22,0c-2.8,0-2.8-2.3-4.6-2.9c-7.3-2.9-12.8-5.3-21.1-6.5
					c0,0,0-1.2,0-1.8c-1.3,0.2-2.4,0.2-3.3,0c3.9-6.6,14-8.9,3.4-13.5c0,0,0,0,0,0c0.6-0.2,1.1-0.4,1.6-0.6c0.1,0,0.1,0,0.2,0
					c0,0,0,0,0-0.1c2.5-1,4-2.1,5.5-4c-1.6,0-3.2,0-4.8,0c0.3-0.8,0.5-1.6,0.3-2.5c0.1-0.2,0.3-0.3,0.4-0.5c0.7,0,1.3,0,1.3,0
					c0.2-0.5,0.4-0.9,0.5-1.4c4.2-2.5,10.8-3.8,9.6-6.3c-1-1.3-4.1-0.2-7.5,0.6c-0.2-0.2-0.5-0.4-0.7-0.6c4.6-0.6,0-4.1,2.8-4.7
					c3.7,0,7.3-0.6,11-0.6c14.9,0,27.5-0.6,42.2-2.3c0.6-0.1,1.3-0.1,1.9-0.2c7.1-0.7,13.8-0.9,20.8-0.4c-0.4,0.4-0.9,0.8-1.4,1.1
					c5.6,0.4,11.2,0.5,16.8-0.4c13.8-2.3,27.5-4.7,42.2-5.3c15.4-0.5,30.2-1.7,45.8-3.7c-6.4,1.3-12.8,2.5-19.3,2.9
					c-2.9-0.1-5.9-0.1-8.7,0c2.9,0.2,5.8,0.1,8.7,0c11.3,0.2,22.9,0.9,31.6-4.6c0.9,0.5,0.9,1.1,1.9,1.1c6.4,0,12.8,0.6,18.3-1.8
					c0-0.6,2.8-0.6,1.8-1.8c5.5-0.6,11.9-0.6,17.4-1.8c2.4-0.4,4.8-1.5,7.1-2.9c19.7-3.1,39.2-6.3,60.4-9.3
					c5.3-0.6,11.4-0.6,16.7-0.6c-7.9,2-15.9,3.6-24.2,5c-8-0.4-15.6-0.4-21.9,2.6c-1.5,0.6-2.9,1.1-4.4,1.6
					c8.9-1.3,17.6-2.6,26.3-4.2c4.7,0.3,9.5,0.7,14.3,0.7c-0.1,0-0.2,0.1-0.3,0.1c-3.7,0.8-7.4,1.5-11.2,2.1
					c-7.1-0.4-13.9-0.4-19.7,1.7c-0.7,0.3-1.5,0.6-2.1,0.9c-1.5,0.6-2.9,1.1-4.4,1.6c5.5-0.8,10.9-1.6,16.3-2.5
					c3.3-0.5,6.7-1.1,10-1.7c2.1,0.1,4.2,0.3,6.3,0.4c-0.2,0.1-0.5,0.3-0.7,0.5c-1.8,0.6-7,7.5-4.2,9.2c14.1-0.1,33.9-2.9,33.9-2.3
					c0.9,2.3-23.3,5.4-22.4,6c1.4,0.3,2.7,0.5,4.1,0.7c-1.3,0.5-2.5,1-3.7,1.5c-2.7,0.6-6.4,0-8.3,1.2c-6.4,3.5-13.8,2.3-21.1,4.7
					c-4.6,1.8-10.1,4.1-15.6,6.5c0,1.2-2.8,0.6-1.8,1.8c-5.2,0-11.2,0-13.4,3.4c-0.1,0-0.3,0.1-0.4,0.1c-0.4,0-0.9,0.2-1.4,0.5
					c-8.6-0.6-14.6,2.7-22.4,4.9c-2.7,0.3-5.4,0.5-8.2,0.5c1.8,0,4.6,0.6,6.4,0c0.6-0.2,1.2-0.3,1.8-0.5c7-0.8,13.6-2.3,20.2-3.6
					c0.5-0.3,1.4-0.9,2.2-1.3c0.5,0,1,0.1,1.4,0.1c0.1-0.2,0.2-0.5,0.4-0.7c6.3-1.7,13.5-2.3,18.9-4c10.2-2,21-1,31.4-0.7
					c-5.2,1-10.3,2-15.3,3.2c6.3-1,12.2-2,17.9-3.1c0.9,0,1.8,0,2.6,0h5.5c-1.7-0.3-3.4-0.5-5.1-0.6c3.4-0.7,6.8-1.4,10.1-2.2
					c18.4-2.7,37.4-4.2,56-3.3c-0.4,0.7-0.8,1.4-1.2,2.1c-9,0.4-17.9,0.4-25.3,3.5c5.2,0,8.8-1,13.8-1.1c0,0.3,0,0.8-0.4,1
					c3.2-0.7,6.9-1.3,10.6-1.5c-1.2,1.5-2.5,3-3.8,4.5c-1.8,1.2-4.6,1.2-7.3,1.8c-11.9,1-23.1,0.7-34.9,2.1
					c-10.4-0.2-20.9-0.4-31.1-0.3C415.9,422.8,425.3,421.2,434.4,419z M126.6,434.4c0.9-0.2,1.9-0.5,2.9-0.8
					c-0.2-0.1-0.3-0.3-0.4-0.4C128.1,433.1,127.2,433.7,126.6,434.4z M148,434.9c-6.3-1-14.6,0.3-22.6,1.2c0,0.2-0.1,0.3-0.1,0.5
					C132.1,437.2,140.3,435.7,148,434.9z M173.2,447.1c0-0.1-0.1-0.1-0.2-0.2c0,0.1,0,0.2,0,0.3
					C173.1,447.2,173.1,447.1,173.2,447.1z M284.9,428.4c-7.3,2.9-16.5,2.9-25.7,4.1c-2.8,0-5.5,2.3-9.2,2.3
					c-4.6,0.6-7.3,1.8-11,2.3l2.8,1.2c-6.4-0.6-10.1,2.9-16.5,1.8c0,0.6-0.9,1.8-1.8,1.8c-4.6,0.6-9.2-0.6-12.8,0.6
					c-4.6,0.6-9.2,0.6-12.8,1.8c-0.9,0-2.7,1.8-4.6,2.4c-2.2,0.2-4.5,0.4-6.7,0.5c0.1,0.2,0.2,0.3,0.3,0.5c1.8,0,3.7,0,5.5-0.4
					c5.5-1.2,11.9-2.4,17.4-2.9c13.8-1.2,26.6-3.5,39.4-5.9c2.7-0.6,5.5-1.8,8.3-2.3c8.3-2.3,18.4-1.8,23.8-5.9
					C282.2,429.6,284,429.6,284.9,428.4z M295.2,403c-9.7,2.5-20.4,3.6-29.5,3.1c-7.3,0-28.4,3.5-24.8,10.6
					C250,403.9,301.6,416.4,295.2,403z M371.7,392.2c-3.8,0.9-7.6,1.8-11.9,1.8C363.8,393.3,367.7,392.8,371.7,392.2z M332.6,416.1
					c11.9-4.1,24.8-4.7,36.7-7c9.2-1.8,19.3,1.2,27.5-2.9c0-0.6,0-1.2,0-1.8l-0.9,0.6c-3.2-0.3-5.8-1.3-8.5-1.8
					c0.2-0.1,0.3-0.1,0.5-0.2c-0.3,0-0.5,0.1-0.8,0.1c-1.8-0.3-3.7-0.4-5.8,0.1c-1,0.3-2,0.6-3,0.8c-11.5,1-23.3,1.9-33.7,5.6
					c-6.4,1.8-11.9,4.7-18.3,6.5C328.1,416.1,330.8,416.7,332.6,416.1z"/>
				<path class="st2" d="M417.4,417.7c4-0.7,8-1.4,12-2c3.1-0.7,6.2-1.5,9.3-2.3c14.7-3.1,31.9-2.1,47.7-3.5c0.5-1.7,0.5-3.5,0-5.3
					c-17.2-1.9-34.4,1.2-51.5,0.3c-0.1,0.1-0.3,0.1-0.4,0.2c-7.3,3.5-19.3,2.3-28.4,5.3c-9.2,3.5-18.3,4.7-27.5,7.6
					C391.8,417.9,404.4,416.6,417.4,417.7z"/>
				<path class="st2" d="M310.4,445.5c3.6-0.3,7.2-0.7,10.8-1.1c10.1-1.4,19.1-3.1,28.3-5.3c-6.7,0.3-13.5,0.5-20.4,0.5
					C322.4,440.3,316.6,443.2,310.4,445.5z"/>
				<path class="st2" d="M357.1,437.4c-2.5,0.6-5,1.2-7.5,1.8c10-0.5,19.9-1.2,29.8-1.9c16.3-2.4,32.6-4.5,48.9-7.6
					c1.8-0.3,3.7-0.6,5.5-0.8c-30.3-0.7-60.5-1.3-86.2,6.1c-0.5,0.2-1,0.3-1.5,0.4c12.2-0.4,24.3-1.3,36.4-2.2
					C374,434.4,365.5,435.8,357.1,437.4z"/>
				<path class="st2" d="M413.6,418.3c0.9,0,1.8,0,2.6,0.1c1-0.2,2-0.4,3-0.6c-0.6-0.1-1.2-0.1-1.8-0.2
					C416.1,417.9,414.9,418.1,413.6,418.3z"/>
				<path class="st2" d="M387.4,403.2c-0.1,0-0.2,0-0.3-0.1c-2.9,0.3-5.9,0.6-8.8,0.9c-4.1,1.1-8.4,2-12.8,2.7
					C373.4,406,381.3,405.3,387.4,403.2z"/>
				<path class="st2" d="M362,389.1c-0.9,0-2.7,0-3.7,0c-0.6,0.4-1.1,0.7-1.7,1.1c0.9,0,1.7,0.1,2.6,0.1L362,389.1z"/>
				<path class="st2" d="M307.9,398.6c16.3-2.3,31.5-4.7,46.6-7.1c0.7-0.4,1.5-0.9,2.2-1.3c-10.1-0.4-20.2,0.4-29.5,3.6
					c-1.8,0.6-4.6,2.3-6.4,2.3c-8.7,0.6-17,2.4-25.2,4.1c3.9-0.5,7.9-1,12-1.6C307.6,398.6,307.7,398.6,307.9,398.6z"/>
			</g>
		</g>
	</g>
</g>
<text transform="matrix(1 0 0 1 100.0703 380.0028)" class="st1 st3 st4">B</text>
</svg>
