<?xml version="1.0" encoding="utf-8"?>
<!-- Generator: Adobe Illustrator 23.0.6, SVG Export Plug-In . SVG Version: 6.00 Build 0)  -->
<svg version="1.1" id="Layer_1" xmlns="http://www.w3.org/2000/svg" xmlns:xlink="http://www.w3.org/1999/xlink" x="0px" y="0px"
	 viewBox="0 0 50 50" style="enable-background:new 0 0 50 50;" xml:space="preserve">
<style type="text/css">
	.st0{fill:#C69288;}
</style>
<path class="st0" d="M24.6,14.6c0.3-2,0.7-4,1-6c-0.7-0.7-2.1-1.8-4.2-2.4c-0.8-0.2-5-1.3-7.9,1.4c-2.5,2.4-2.1,6.1-2,6.5
	c0.6,3.6,1.9,8.6,4.6,14.1c3,6.1,6.7,10.4,9.4,13.1c0.9,0.6,2.6,1.6,4.9,1.5c3.5-0.2,6.7-3.1,8-7.3c-2-1.6-4-3.2-6.1-4.7
	c-0.1,0.7-0.5,1.9-1.4,3.2c-0.5,0.6-0.7,0.9-1,1c-1.3,0.3-2.9-2.6-6.9-9.4c0,0-4.7-8.1-3.8-10.8c0.1-0.2,0.3-0.8,0.8-1.1
	c0.4-0.2,0.8-0.1,1.8,0C23.1,13.8,24,14.2,24.6,14.6z"/>
</svg>
